<svg id="Layer_1" data-name="Layer 1" xmlns="http://www.w3.org/2000/svg" xmlns:xlink="http://www.w3.org/1999/xlink" viewBox="0 0 900 225"><defs><style>.cls-1{font-size:81px;letter-spacing:0.02em;}.cls-1,.cls-16,.cls-17,.cls-19,.cls-26,.cls-27{fill:#b3b3b3;}.cls-1,.cls-16,.cls-19,.cls-21,.cls-27,.cls-29,.cls-33,.cls-7{font-family:MyriadPro-Semibold, Myriad Pro;font-weight:600;}.cls-2{letter-spacing:0.02em;}.cls-3{letter-spacing:-0.02em;}.cls-4{fill:none;}.cls-5{stroke:#000;stroke-miterlimit:10;stroke-width:0.5px;}.cls-6{font-size:37px;letter-spacing:0.04em;}.cls-12,.cls-14,.cls-17,.cls-25,.cls-35,.cls-6{font-family:YuGothic-Medium, Yu Gothic;font-weight:500;}.cls-16,.cls-7{font-size:38.57px;}.cls-7{letter-spacing:0.02em;}.cls-8{letter-spacing:0.02em;}.cls-9{letter-spacing:-0.02em;}.cls-10,.cls-16{letter-spacing:0.02em;}.cls-11,.cls-36{fill:red;}.cls-12,.cls-14,.cls-17{font-size:16.77px;}.cls-12{letter-spacing:0.08em;}.cls-13{letter-spacing:0.05em;}.cls-14{letter-spacing:0.39em;}.cls-15{letter-spacing:0.37em;}.cls-17{letter-spacing:0.08em;}.cls-18{letter-spacing:0.06em;}.cls-19,.cls-21,.cls-27,.cls-29,.cls-33{font-size:32.51px;}.cls-19{letter-spacing:-0.07em;}.cls-20{letter-spacing:-0.08em;}.cls-21{letter-spacing:-0.08em;}.cls-22{letter-spacing:-0.08em;}.cls-23{letter-spacing:-0.14em;}.cls-24{letter-spacing:-0.16em;}.cls-25,.cls-35{font-size:12.22px;}.cls-25{letter-spacing:-0.08em;}.cls-26{font-family:YuGothic-Regular, Yu Gothic;font-weight:400;}.cls-27{letter-spacing:-0.07em;}.cls-28{letter-spacing:-0.08em;}.cls-29,.cls-33,.cls-35{fill:#333;}.cls-29{letter-spacing:-0.08em;}.cls-30{letter-spacing:-0.09em;}.cls-31{letter-spacing:-0.08em;}.cls-32{letter-spacing:-0.08em;}.cls-33{letter-spacing:-0.08em;}.cls-34{letter-spacing:-0.1em;}.cls-35{letter-spacing:-0.08em;}.cls-36{font-size:6px;font-family:MyriadPro-Regular, Myriad Pro;letter-spacing:0.14em;}.cls-37{letter-spacing:0.13em;}.cls-38{letter-spacing:0.15em;}.cls-39{letter-spacing:0.1em;}.cls-40{letter-spacing:0.12em;}</style><symbol id="brand-icon" data-name="brand-icon" viewBox="0 0 504 146.6"><text class="cls-1" transform="translate(0 89.49) scale(1.05 1.32)">EL<tspan class="cls-2" x="84.4" y="0">E</tspan><tspan x="128.14" y="0" xml:space="preserve">V  </tspan><tspan class="cls-3" x="214.48" y="0"> </tspan><tspan x="229.39" y="0">TE</tspan></text><polygon class="cls-4" points="213 22.61 189.5 38.55 189.5 49.48 236.5 49.48 236.5 38.55 213 22.61"/><polygon class="cls-4" points="236.5 31.3 236.5 11.48 189.5 11.48 189.5 31.3 213 15.36 236.5 31.3"/><polygon class="cls-5" points="236.5 38.55 236.5 31.3 213 15.36 189.5 31.3 189.5 38.55 213 22.61 236.5 38.55"/><polygon class="cls-4" points="213 71.61 189.5 87.56 189.5 98.48 236.5 98.48 236.5 87.56 213 71.61"/><polygon class="cls-4" points="236.5 80.3 236.5 60.48 189.5 60.48 189.5 80.3 213 64.36 236.5 80.3"/><polygon class="cls-5" points="236.5 87.56 236.5 80.3 213 64.36 189.5 80.3 189.5 87.56 213 71.61 236.5 87.56"/><polygon class="cls-4" points="213 47.61 189.5 63.55 189.5 74.48 236.5 74.48 236.5 63.55 213 47.61"/><polygon class="cls-4" points="236.5 56.3 236.5 36.48 189.5 36.48 189.5 56.3 213 40.36 236.5 56.3"/><polygon class="cls-5" points="236.5 63.55 236.5 56.3 213 40.36 189.5 56.3 189.5 63.55 213 47.61 236.5 63.55"/><text class="cls-6" transform="translate(58.17 135.62) scale(0.73 1)">C O A C H I N G</text></symbol></defs><text class="cls-7" transform="translate(358.35 133.19) scale(0.93 1.32)">EL<tspan class="cls-8" x="40.19" y="0">E</tspan><tspan x="61.01" y="0" xml:space="preserve">V  </tspan><tspan class="cls-9" x="102.12" y="0"> </tspan><tspan class="cls-10" x="109.22" y="0">TE</tspan></text><polygon class="cls-4" points="440.46 102.38 430.52 109.97 430.52 115.18 450.4 115.18 450.4 109.97 440.46 102.38"/><polygon class="cls-4" points="450.4 106.52 450.4 97.08 430.52 97.08 430.52 106.52 440.46 98.93 450.4 106.52"/><polygon class="cls-11" points="458.4 109.97 458.4 106.52 448.46 98.93 438.52 106.52 438.52 109.97 448.46 102.38 458.4 109.97"/><polygon class="cls-4" points="440.46 125.71 430.52 133.31 430.52 138.51 450.4 138.51 450.4 133.31 440.46 125.71"/><polygon class="cls-4" points="450.4 129.85 450.4 120.42 430.52 120.42 430.52 129.85 440.46 122.26 450.4 129.85"/><polygon class="cls-11" points="458.4 133.31 458.4 129.85 448.46 122.26 438.52 129.85 438.52 133.31 448.46 125.71 458.4 133.31"/><polygon class="cls-4" points="440.46 114.28 430.52 121.88 430.52 127.08 450.4 127.08 450.4 121.88 440.46 114.28"/><polygon class="cls-4" points="450.4 118.43 450.4 108.99 430.52 108.99 430.52 118.43 440.46 110.83 450.4 118.43"/><polygon class="cls-11" points="458.4 121.88 458.4 118.43 448.46 110.83 438.52 118.43 438.52 121.88 448.46 114.28 458.4 121.88"/><polygon points="794.83 109.97 794.83 106.52 784.89 98.93 774.95 106.52 774.95 109.97 784.89 102.38 794.83 109.97"/><polygon points="794.83 133.31 794.83 129.85 784.89 122.26 774.95 129.85 774.95 133.31 784.89 125.71 794.83 133.31"/><polygon points="794.83 121.88 794.83 118.43 784.89 110.83 774.95 118.43 774.95 121.88 784.89 114.28 794.83 121.88"/><polygon class="cls-11" points="626.3 109.18 626.3 105.73 616.35 98.14 606.41 105.73 606.41 109.18 616.35 101.59 626.3 109.18"/><polygon class="cls-11" points="626.3 132.51 626.3 129.06 616.35 121.47 606.41 129.06 606.41 132.51 616.35 124.92 626.3 132.51"/><polygon class="cls-11" points="626.3 121.08 626.3 117.63 616.35 110.04 606.41 117.63 606.41 121.08 616.35 113.49 626.3 121.08"/><text class="cls-12" transform="translate(393.31 153.36) scale(0.68 1)">COM<tspan class="cls-13" x="43.17" y="0">P</tspan><tspan x="55.12" y="0">ANIES</tspan></text><text class="cls-14" transform="translate(718.7 151.81) scale(0.68 1)">C<tspan class="cls-15" x="17.95" y="0">OA</tspan><tspan x="53.6" y="0">CHING</tspan></text><text class="cls-16" transform="translate(526.24 132.3) scale(0.93 1.32)">EL<tspan class="cls-8" x="40.19" y="0">E</tspan><tspan x="61.01" y="0" xml:space="preserve">V  </tspan><tspan class="cls-9" x="102.12" y="0"> </tspan><tspan x="109.22" y="0">TE</tspan></text><text class="cls-16" transform="translate(694.78 133.1) scale(0.93 1.32)">EL<tspan class="cls-8" x="40.19" y="0">E</tspan><tspan x="61.01" y="0" xml:space="preserve">V  </tspan><tspan class="cls-9" x="102.12" y="0"> </tspan><tspan x="109.22" y="0">TE</tspan></text><text class="cls-17" transform="translate(533.61 151.75) scale(0.68 1)">LEVER<tspan class="cls-18" x="59.6" y="0">A</tspan><tspan x="71.59" y="0">GE SERVICES</tspan></text><use width="504" height="146.6" transform="translate(0 0) scale(0.82 0.92)" xlink:href="#brand-icon"/><text class="cls-19" transform="translate(428.95 207.55) scale(1.15 1.32)">k<tspan class="cls-20" x="14.21" y="0">w </tspan></text><text class="cls-21" transform="translate(475.03 207.55) scale(0.8 0.92)">INN<tspan class="cls-22" x="44.73" y="0">O</tspan><tspan class="cls-23" x="64.92" y="0">V</tspan><tspan class="cls-24" x="80.07" y="0">A</tspan><tspan x="95.51" y="0">TE</tspan></text><text class="cls-25" transform="translate(431.2 220.91) scale(1.03 1)">KELLER<tspan class="cls-26" x="40.44" y="0">WILLIAMS.</tspan></text><text class="cls-27" transform="translate(592.51 207.55) scale(1.22 1.32)">k<tspan class="cls-28" x="14.21" y="0">w </tspan></text><text class="cls-29" transform="translate(641.54 207.55) scale(0.86 0.92)">M<tspan class="cls-30" x="24.28" y="0">Y</tspan><tspan class="cls-31" x="39.96" y="0">R</tspan><tspan class="cls-32" x="56.01" y="0">TLE</tspan></text><text class="cls-33" transform="translate(725.48 207.55) scale(1.22 1.32)"> </text><text class="cls-29" transform="translate(730.53 207.55) scale(0.86 0.92)">BE<tspan class="cls-34" x="30.27" y="0">A</tspan><tspan class="cls-32" x="47.66" y="0">CH</tspan></text><text class="cls-35" transform="translate(594.9 220.91) scale(1.05 1)">KELLER<tspan class="cls-26" x="40.44" y="0">WILLIAMS.</tspan></text><text class="cls-36" transform="translate(551.63 161.4)">PEOPLE | S<tspan class="cls-37" x="34.89" y="0">Y</tspan><tspan class="cls-38" x="38.93" y="0">STEMS |</tspan><tspan class="cls-39" x="64.4" y="0"> </tspan><tspan class="cls-40" x="66.29" y="0">T</tspan><tspan class="cls-38" x="69.98" y="0">OOLS</tspan></text></svg>