<?xml version="1.0" encoding="utf-8"?>
<!-- Generator: Adobe Illustrator 25.2.1, SVG Export Plug-In . SVG Version: 6.00 Build 0)  -->
<svg version="1.1" xmlns="http://www.w3.org/2000/svg" xmlns:xlink="http://www.w3.org/1999/xlink" x="0px" y="0px" width="1007px"
	 height="249.8px" viewBox="0 0 1007 249.8" style="enable-background:new 0 0 1007 249.8;" xml:space="preserve">
<style type="text/css">
	.st0{fill:none;}
	.st1{stroke:#000000;stroke-width:0.5;stroke-miterlimit:10;}
	.st2{font-family:'MyriadPro-Semibold';}
	.st3{font-size:42.8133px;}
	.st4{letter-spacing:1.1;}
	.st5{fill:#FF0000;}
	.st6{font-family:'YuGothic-Medium';}
	.st7{font-size:18.6205px;}
	.st8{letter-spacing:1.4;}
	.st9{letter-spacing:5.8;}
	.st10{fill:#B3B3B3;}
	.st11{font-size:36.0891px;}
	.st12{letter-spacing:-2.6;}
	.st13{letter-spacing:-2.5;}
	.st14{letter-spacing:-3.7;}
	.st15{letter-spacing:-4.9;}
	.st16{font-size:13.5601px;}
	.st17{letter-spacing:-1;}
	.st18{font-family:'YuGothic-Regular';}
	.st19{letter-spacing:-2.4;}
	.st20{fill:#333333;}
	.st21{letter-spacing:-2.3;}
	.st22{letter-spacing:-3.5;}
	.st23{letter-spacing:-0.9;}
	.st24{font-family:'YuGothic-Light';}
	.st25{font-size:8.4598px;}
	.st26{fill:none;stroke:#FF0000;stroke-width:0.5;stroke-miterlimit:10;}
</style>
<symbol  id="brand-icon" viewBox="-252 -73.3 504 146.6">
	<g>
		<g>
			<rect x="-252" y="-42.9" class="st0" width="504" height="84.2"/>
			<text transform="matrix(1.05 0 0 -1.32 -252 -16.1909)"><tspan x="0" y="0" class="st10 st2" style="font-size:81px; letter-spacing:1;">EL</tspan><tspan x="84.4" y="0" class="st10 st2" style="font-size:81px; letter-spacing:1.9;">E</tspan><tspan x="128.1" y="0" class="st10 st2" style="font-size:81px; letter-spacing:1;">V  </tspan><tspan x="214.5" y="0" class="st10 st2 st17" style="font-size:81px;"> </tspan><tspan x="229.4" y="0" class="st10 st2" style="font-size:81px; letter-spacing:1;">TE</tspan></text>
			<g>
				<g>
					<polygon class="st0" points="-39,50.7 -62.5,34.7 -62.5,23.8 -15.5,23.8 -15.5,34.7 					"/>
					<polygon class="st0" points="-15.5,42 -15.5,61.8 -62.5,61.8 -62.5,42 -39,57.9 					"/>
					<polygon class="st1" points="-15.5,34.7 -15.5,42 -39,57.9 -62.5,42 -62.5,34.7 -39,50.7 					"/>
				</g>
				<g>
					<polygon class="st0" points="-39,1.7 -62.5,-14.3 -62.5,-25.2 -15.5,-25.2 -15.5,-14.3 					"/>
					<polygon class="st0" points="-15.5,-7 -15.5,12.8 -62.5,12.8 -62.5,-7 -39,8.9 					"/>
					<polygon class="st1" points="-15.5,-14.3 -15.5,-7 -39,8.9 -62.5,-7 -62.5,-14.3 -39,1.7 					"/>
				</g>
				<g>
					<polygon class="st0" points="-39,25.7 -62.5,9.7 -62.5,-1.2 -15.5,-1.2 -15.5,9.7 					"/>
					<polygon class="st0" points="-15.5,17 -15.5,36.8 -62.5,36.8 -62.5,17 -39,32.9 					"/>
					<polygon class="st1" points="-15.5,9.7 -15.5,17 -39,32.9 -62.5,17 -62.5,9.7 -39,25.7 					"/>
				</g>
			</g>
		</g>
	</g>
	<text transform="matrix(0.7335 0 0 -1 -193.8291 -62.3174)" class="st6 st8" style="font-size:37px;">C O A C H I N G</text>
</symbol>
<g id="Layer_1">
	<g>
		<rect x="392" y="117.5" class="st0" width="238.6" height="44.5"/>
		<text transform="matrix(0.9403 0 0 1.32 392 147.8613)"><tspan x="0" y="0" class="st2 st3">EL</tspan><tspan x="44.6" y="0" class="st2 st3 st4">E</tspan><tspan x="67.7" y="0" class="st2 st3">V  </tspan><tspan x="113.4" y="0" class="st2 st3"> </tspan><tspan x="121.2" y="0" class="st2 st3">TE</tspan></text>
		<g>
			<polygon class="st0" points="492.8,113.7 481.7,122.1 481.7,127.9 503.9,127.9 503.9,122.1 			"/>
			<polygon class="st0" points="503.9,118.3 503.9,107.8 481.7,107.8 481.7,118.3 492.8,109.8 			"/>
			<polygon class="st5" points="503.9,122.1 503.9,118.3 492.8,109.8 481.7,118.3 481.7,122.1 492.8,113.7 			"/>
		</g>
		<g>
			<polygon class="st0" points="492.8,139.6 481.7,148 481.7,153.8 503.9,153.8 503.9,148 			"/>
			<polygon class="st0" points="503.9,144.2 503.9,133.7 481.7,133.7 481.7,144.2 492.8,135.7 			"/>
			<polygon class="st5" points="503.9,148 503.9,144.2 492.8,135.7 481.7,144.2 481.7,148 492.8,139.6 			"/>
		</g>
		<g>
			<polygon class="st0" points="492.8,126.9 481.7,135.3 481.7,141.1 503.9,141.1 503.9,135.3 			"/>
			<polygon class="st0" points="503.9,131.5 503.9,121 481.7,121 481.7,131.5 492.8,123 			"/>
			<polygon class="st5" points="503.9,135.3 503.9,131.5 492.8,123 481.7,131.5 481.7,135.3 492.8,126.9 			"/>
			<g>
				<polygon points="880.4,122.1 880.4,118.3 869.3,109.8 858.1,118.3 858.1,122.1 869.3,113.7 				"/>
				<polygon points="880.4,148 880.4,144.2 869.3,135.7 858.1,144.2 858.1,148 869.3,139.6 				"/>
				<polygon points="880.4,135.3 880.4,131.5 869.3,123 858.1,131.5 858.1,135.3 869.3,126.9 				"/>
			</g>
			<g>
				<polygon class="st5" points="691.8,121.2 691.8,117.4 680.7,108.9 669.6,117.4 669.6,121.2 680.7,112.8 				"/>
				<polygon class="st5" points="691.8,147.1 691.8,143.3 680.7,134.8 669.6,143.3 669.6,147.1 680.7,138.7 				"/>
				<polygon class="st5" points="691.8,134.4 691.8,130.6 680.7,122.2 669.6,130.6 669.6,134.4 680.7,126 				"/>
			</g>
		</g>
		<text transform="matrix(0.6899 0 0 1 431.1172 170.248)"><tspan x="0" y="0" class="st6 st7 st8">COM</tspan><tspan x="47.9" y="0" class="st6 st7">P</tspan><tspan x="61.2" y="0" class="st6 st7 st8">ANIES</tspan></text>
		<text transform="matrix(0.6899 0 0 1 795.1943 168.5293)"><tspan x="0" y="0" class="st6 st7 st9">C</tspan><tspan x="19.9" y="0" class="st6 st7 st9">OA</tspan><tspan x="59.5" y="0" class="st6 st7 st9">CHING</tspan></text>
		<rect x="579.9" y="116.4" class="st0" width="238.6" height="44.5"/>
		<text transform="matrix(0.9403 0 0 1.32 579.8555 146.8457)"><tspan x="0" y="0" class="st10 st2 st3">EL</tspan><tspan x="44.6" y="0" class="st10 st2 st3 st4">E</tspan><tspan x="67.7" y="0" class="st10 st2 st3">V  </tspan><tspan x="113.4" y="0" class="st10 st2 st3"> </tspan><tspan x="121.2" y="0" class="st10 st2 st3">TE</tspan></text>
		<rect x="768.4" y="117.4" class="st0" width="238.6" height="44.5"/>
		<text transform="matrix(0.9403 0 0 1.32 768.4287 147.8457)"><tspan x="0" y="0" class="st10 st2 st3">EL</tspan><tspan x="44.6" y="0" class="st10 st2 st3 st4">E</tspan><tspan x="67.7" y="0" class="st10 st2 st3">V  </tspan><tspan x="113.4" y="0" class="st10 st2 st3"> </tspan><tspan x="121.2" y="0" class="st10 st2 st3">TE</tspan></text>
		<text transform="matrix(0.6899 0 0 1 588.0996 168.4609)"><tspan x="0" y="0" class="st10 st6 st7 st8">LEVER</tspan><tspan x="66.2" y="0" class="st10 st6 st7">A</tspan><tspan x="79.5" y="0" class="st10 st6 st7 st8">GE SERVICES</tspan></text>
	</g>
	
		<use xlink:href="#brand-icon"  width="504" height="146.6" id="XMLID_1_" x="-252" y="-73.3" transform="matrix(0.9187 0 0 -1.0235 231.5 75.0259)" style="overflow:visible;"/>
	<g>
		<rect x="471" y="204.8" class="st0" width="234" height="45"/>
		<text transform="matrix(1.1585 0 0 1.32 471 230.3984)" class="st10 st2 st11 st12">k</text>
		<text transform="matrix(1.1585 0 0 1.32 489.2705 230.3984)" class="st10 st2 st11 st12">w </text>
		<text transform="matrix(0.811 0 0 0.924 522.5508 230.3984)" class="st2 st11 st13">inn</text>
		<text transform="matrix(0.811 0 0 0.924 562.8213 230.3984)" class="st2 st11 st13">o</text>
		<text transform="matrix(0.811 0 0 0.924 580.9961 230.3984)" class="st2 st11 st14">v</text>
		<text transform="matrix(0.811 0 0 0.924 594.6348 230.3984)" class="st2 st11 st15">a</text>
		<text transform="matrix(0.811 0 0 0.924 608.5371 230.3984)" class="st2 st11 st13">te</text>
		<text transform="matrix(1.0421 0 0 1 473.5122 245.2314)"><tspan x="0" y="0" class="st6 st16 st17">KELLER</tspan><tspan x="44.9" y="0" class="st10 st18 st16 st17">WILLIAMS.</tspan></text>
	</g>
	<g>
		<rect x="654" y="204.8" class="st0" width="249" height="45"/>
		<text transform="matrix(1.2328 0 0 1.32 654 230.3984)" class="st10 st2 st11 st19">k</text>
		<text transform="matrix(1.2328 0 0 1.32 673.4414 230.3984)" class="st10 st2 st11 st19">w </text>
		<text transform="matrix(0.863 0 0 0.924 708.8555 230.3984)" class="st20 st2 st11 st21">m</text>
		<text transform="matrix(0.863 0 0 0.924 732.1201 230.3984)" class="st20 st2 st11 st21">y</text>
		<text transform="matrix(0.863 0 0 0.924 747.1309 230.3984)" class="st20 st2 st11 st21">r</text>
		<text transform="matrix(0.863 0 0 0.924 762.5146 230.3984)" class="st20 st2 st11 st21">tle</text>
		<text transform="matrix(1.2328 0 0 1.32 802.7822 230.3984)" class="st20 st2 st11 st19"> </text>
		<text transform="matrix(0.863 0 0 0.924 808.4316 230.3984)" class="st20 st2 st11 st21">be</text>
		<text transform="matrix(0.863 0 0 0.924 837.4258 230.3984)" class="st20 st2 st11 st22">a</text>
		<text transform="matrix(0.863 0 0 0.924 854.0869 230.3984)" class="st20 st2 st11 st21">ch</text>
		<text transform="matrix(1.0574 0 0 1 656.6729 245.2314)"><tspan x="0" y="0" class="st20 st6 st16 st23">KELLER</tspan><tspan x="44.9" y="0" class="st10 st18 st16 st23">WILLIAMS.</tspan></text>
	</g>
	<text transform="matrix(0.852 0 0 0.7 607.8896 179.2178)" class="st5 st24 st25">people</text>
	<text transform="matrix(1.2172 0 0 1 634.4873 179.2178)" class="st5 st24 st25">   </text>
	<text transform="matrix(0.852 0 0 0.7 643.2959 179.2178)" class="st5 st24 st25">sys</text>
	<text transform="matrix(0.852 0 0 0.7 656.0684 179.2178)" class="st5 st24 st25">tems</text>
	<text transform="matrix(1.2172 0 0 1 675.2988 179.2178)" class="st5 st24 st25">   </text>
	<text transform="matrix(0.852 0 0 0.7 684.1084 179.2178)" class="st5 st24 st25">t</text>
	<text transform="matrix(0.852 0 0 0.7 688.2715 179.2178)" class="st5 st24 st25">oo</text>
	<text transform="matrix(0.852 0 0 0.7 698.3516 179.2178)" class="st5 st24 st25">l</text>
	<text transform="matrix(0.852 0 0 0.7 702.2656 179.2178)" class="st5 st24 st25">s</text>
	<g>
		<line class="st26" x1="680.5" y1="179.8" x2="680.5" y2="173.8"/>
		<line class="st26" x1="639.5" y1="179.8" x2="639.5" y2="173.8"/>
	</g>
</g>
<g id="Layer_2">
</g>
</svg>
