<svg id="Layer_1" data-name="Layer 1" xmlns="http://www.w3.org/2000/svg" xmlns:xlink="http://www.w3.org/1999/xlink" viewBox="0 0 900 225"><defs><style>.cls-1{font-size:81px;letter-spacing:0.02em;}.cls-1,.cls-16,.cls-17,.cls-19,.cls-26,.cls-27{fill:#b3b3b3;}.cls-1,.cls-16,.cls-19,.cls-21,.cls-27,.cls-29,.cls-33,.cls-7{font-family:MyriadPro-Semibold, Myriad Pro;font-weight:600;}.cls-2{letter-spacing:0.02em;}.cls-3{letter-spacing:-0.02em;}.cls-4{fill:none;}.cls-5{stroke:#000;stroke-miterlimit:10;stroke-width:0.5px;}.cls-6{font-size:37px;letter-spacing:0.04em;}.cls-12,.cls-14,.cls-17,.cls-25,.cls-35,.cls-6{font-family:YuGothic-Medium, Yu Gothic;font-weight:500;}.cls-16,.cls-7{font-size:38.57px;}.cls-7{letter-spacing:0.02em;}.cls-8{letter-spacing:0.02em;}.cls-9{letter-spacing:-0.02em;}.cls-10,.cls-16{letter-spacing:0.02em;}.cls-11{fill:red;}.cls-12,.cls-14,.cls-17{font-size:16.77px;}.cls-12{letter-spacing:0.08em;}.cls-13{letter-spacing:0.05em;}.cls-14{letter-spacing:0.39em;}.cls-15{letter-spacing:0.37em;}.cls-17{letter-spacing:0.08em;}.cls-18{letter-spacing:0.06em;}.cls-19,.cls-21,.cls-27,.cls-29,.cls-33{font-size:32.51px;}.cls-19{letter-spacing:-0.07em;}.cls-20{letter-spacing:-0.08em;}.cls-21{letter-spacing:-0.08em;}.cls-22{letter-spacing:-0.08em;}.cls-23{letter-spacing:-0.14em;}.cls-24{letter-spacing:-0.16em;}.cls-25,.cls-35{font-size:12.22px;}.cls-25{letter-spacing:-0.08em;}.cls-26{font-family:YuGothic-Regular, Yu Gothic;font-weight:400;}.cls-27{letter-spacing:-0.07em;}.cls-28{letter-spacing:-0.08em;}.cls-29,.cls-33,.cls-35{fill:#333;}.cls-29{letter-spacing:-0.08em;}.cls-30{letter-spacing:-0.09em;}.cls-31{letter-spacing:-0.08em;}.cls-32{letter-spacing:-0.08em;}.cls-33{letter-spacing:-0.08em;}.cls-34{letter-spacing:-0.1em;}.cls-35{letter-spacing:-0.08em;}</style><symbol id="brand-icon" data-name="brand-icon" viewBox="0 0 504 146.6"><text class="cls-1" transform="translate(0 89.49) scale(1.05 1.32)">EL<tspan class="cls-2" x="84.4" y="0">E</tspan><tspan x="128.14" y="0" xml:space="preserve">V  </tspan><tspan class="cls-3" x="214.48" y="0"> </tspan><tspan x="229.39" y="0">TE</tspan></text><polygon class="cls-4" points="213 22.61 189.5 38.55 189.5 49.48 236.5 49.48 236.5 38.55 213 22.61"/><polygon class="cls-4" points="236.5 31.3 236.5 11.48 189.5 11.48 189.5 31.3 213 15.36 236.5 31.3"/><polygon class="cls-5" points="236.5 38.55 236.5 31.3 213 15.36 189.5 31.3 189.5 38.55 213 22.61 236.5 38.55"/><polygon class="cls-4" points="213 71.61 189.5 87.56 189.5 98.48 236.5 98.48 236.5 87.56 213 71.61"/><polygon class="cls-4" points="236.5 80.3 236.5 60.48 189.5 60.48 189.5 80.3 213 64.36 236.5 80.3"/><polygon class="cls-5" points="236.5 87.56 236.5 80.3 213 64.36 189.5 80.3 189.5 87.56 213 71.61 236.5 87.56"/><polygon class="cls-4" points="213 47.61 189.5 63.55 189.5 74.48 236.5 74.48 236.5 63.55 213 47.61"/><polygon class="cls-4" points="236.5 56.3 236.5 36.48 189.5 36.48 189.5 56.3 213 40.36 236.5 56.3"/><polygon class="cls-5" points="236.5 63.55 236.5 56.3 213 40.36 189.5 56.3 189.5 63.55 213 47.61 236.5 63.55"/><text class="cls-6" transform="translate(58.17 135.62) scale(0.73 1)">C O A C H I N G</text></symbol></defs><text class="cls-7" transform="translate(366.23 133.19) scale(0.93 1.32)">EL<tspan class="cls-8" x="40.19" y="0">E</tspan><tspan x="61.01" y="0" xml:space="preserve">V  </tspan><tspan class="cls-9" x="102.12" y="0"> </tspan><tspan class="cls-10" x="109.22" y="0">TE</tspan></text><polygon class="cls-4" points="440.46 102.38 430.52 109.97 430.52 115.18 450.4 115.18 450.4 109.97 440.46 102.38"/><polygon class="cls-4" points="450.4 106.52 450.4 97.08 430.52 97.08 430.52 106.52 440.46 98.93 450.4 106.52"/><polygon class="cls-11" points="466.4 109.97 466.4 106.52 456.46 98.93 446.52 106.52 446.52 109.97 456.46 102.38 466.4 109.97"/><polygon class="cls-4" points="440.46 125.71 430.52 133.31 430.52 138.51 450.4 138.51 450.4 133.31 440.46 125.71"/><polygon class="cls-4" points="450.4 129.85 450.4 120.42 430.52 120.42 430.52 129.85 440.46 122.26 450.4 129.85"/><polygon class="cls-11" points="466.4 133.31 466.4 129.85 456.46 122.26 446.52 129.85 446.52 133.31 456.46 125.71 466.4 133.31"/><polygon class="cls-4" points="440.46 114.28 430.52 121.88 430.52 127.08 450.4 127.08 450.4 121.88 440.46 114.28"/><polygon class="cls-4" points="450.4 118.43 450.4 108.99 430.52 108.99 430.52 118.43 440.46 110.83 450.4 118.43"/><polygon class="cls-11" points="466.4 121.88 466.4 118.43 456.46 110.83 446.52 118.43 446.52 121.88 456.46 114.28 466.4 121.88"/><polygon points="802.83 109.97 802.83 106.52 792.89 98.93 782.95 106.52 782.95 109.97 792.89 102.38 802.83 109.97"/><polygon points="802.83 133.31 802.83 129.85 792.89 122.26 782.95 129.85 782.95 133.31 792.89 125.71 802.83 133.31"/><polygon points="802.83 121.88 802.83 118.43 792.89 110.83 782.95 118.43 782.95 121.88 792.89 114.28 802.83 121.88"/><polygon class="cls-11" points="634.3 109.18 634.3 105.73 624.35 98.14 614.41 105.73 614.41 109.18 624.35 101.59 634.3 109.18"/><polygon class="cls-11" points="634.3 132.51 634.3 129.06 624.35 121.47 614.41 129.06 614.41 132.51 624.35 124.92 634.3 132.51"/><polygon class="cls-11" points="634.3 121.08 634.3 117.63 624.35 110.04 614.41 117.63 614.41 121.08 624.35 113.49 634.3 121.08"/><text class="cls-12" transform="translate(401.31 153.36) scale(0.68 1)">COM<tspan class="cls-13" x="43.17" y="0">P</tspan><tspan x="55.12" y="0">ANIES</tspan></text><text class="cls-14" transform="translate(726.7 151.81) scale(0.68 1)">C<tspan class="cls-15" x="17.95" y="0">OA</tspan><tspan x="53.6" y="0">CHING</tspan></text><text class="cls-16" transform="translate(534.24 132.3) scale(0.93 1.32)">EL<tspan class="cls-8" x="40.19" y="0">E</tspan><tspan x="61.01" y="0" xml:space="preserve">V  </tspan><tspan class="cls-9" x="102.12" y="0"> </tspan><tspan x="109.22" y="0">TE</tspan></text><text class="cls-16" transform="translate(702.78 133.1) scale(0.93 1.32)">EL<tspan class="cls-8" x="40.19" y="0">E</tspan><tspan x="61.01" y="0" xml:space="preserve">V  </tspan><tspan class="cls-9" x="102.12" y="0"> </tspan><tspan x="109.22" y="0">TE</tspan></text><text class="cls-17" transform="translate(541.61 151.75) scale(0.68 1)">LEVER<tspan class="cls-18" x="59.6" y="0">A</tspan><tspan x="71.59" y="0">GE SERVICES</tspan></text><use width="504" height="146.6" transform="translate(0 0) scale(0.82 0.92)" xlink:href="#brand-icon"/><text class="cls-19" transform="translate(436.95 207.55) scale(1.15 1.32)">k<tspan class="cls-20" x="14.21" y="0">w </tspan></text><text class="cls-21" transform="translate(483.03 207.55) scale(0.8 0.92)">INN<tspan class="cls-22" x="44.73" y="0">O</tspan><tspan class="cls-23" x="64.92" y="0">V</tspan><tspan class="cls-24" x="80.07" y="0">A</tspan><tspan x="95.51" y="0">TE</tspan></text><text class="cls-25" transform="translate(439.2 220.91) scale(1.03 1)">KELLER<tspan class="cls-26" x="40.44" y="0">WILLIAMS.</tspan></text><text class="cls-27" transform="translate(600.51 207.55) scale(1.22 1.32)">k<tspan class="cls-28" x="14.21" y="0">w </tspan></text><text class="cls-29" transform="translate(649.54 207.55) scale(0.86 0.92)">M<tspan class="cls-30" x="24.28" y="0">Y</tspan><tspan class="cls-31" x="39.96" y="0">R</tspan><tspan class="cls-32" x="56.01" y="0">TLE</tspan></text><text class="cls-33" transform="translate(733.48 207.55) scale(1.22 1.32)"> </text><text class="cls-29" transform="translate(738.53 207.55) scale(0.86 0.92)">BE<tspan class="cls-34" x="30.27" y="0">A</tspan><tspan class="cls-32" x="47.66" y="0">CH</tspan></text><text class="cls-35" transform="translate(602.9 220.91) scale(1.05 1)">KELLER<tspan class="cls-26" x="40.44" y="0">WILLIAMS.</tspan></text><path class="cls-11" d="M560.15,157.24h1.28a1.09,1.09,0,0,1,1.24,1.1c0,.78-.52,1.16-1.3,1.16h-.92v1.9h-.3Zm.3,2h.92c.58,0,1-.2,1-.88s-.41-.82-1-.82h-.91Z"/><path class="cls-11" d="M566.41,159.35h-1.87v1.77h2.05l-.05.28h-2.3v-4.16h2.26v.28h-2v1.55h1.87Z"/><path class="cls-11" d="M571.3,159.29c0,1.2-.53,2.17-1.66,2.17s-1.63-.87-1.63-2.15.56-2.13,1.67-2.13S571.3,158,571.3,159.29Zm-3,0c0,1.07.42,1.89,1.33,1.89s1.33-.83,1.33-1.88-.43-1.83-1.32-1.83S568.33,158.29,568.33,159.29Z"/><path class="cls-11" d="M573,157.24h1.28a1.09,1.09,0,0,1,1.24,1.1c0,.78-.53,1.16-1.31,1.16h-.91v1.9H573Zm.3,2h.91c.58,0,1-.2,1-.88s-.4-.82-1-.82h-.91Z"/><path class="cls-11" d="M577.11,157.24h.3v3.88h2l-.06.28h-2.28Z"/><path class="cls-11" d="M583.05,159.35h-1.86v1.77h2l0,.28h-2.3v-4.16h2.26v.28h-2v1.55h1.86Z"/><path class="cls-11" d="M587.47,156.73V163h-.28v-6.25Z"/><path class="cls-11" d="M591.68,160.26a1,1,0,0,0,1,.91.83.83,0,0,0,.92-.85c0-.51-.2-.73-1-1s-1.12-.51-1.12-1.11a1,1,0,0,1,1.16-1,1.11,1.11,0,0,1,1.2,1.07h-.3a.84.84,0,0,0-.92-.79c-.54,0-.82.28-.82.72s.22.63.92.85c1,.32,1.2.69,1.2,1.25a1.13,1.13,0,0,1-1.26,1.16,1.21,1.21,0,0,1-1.32-1.19Z"/><path class="cls-11" d="M596.46,161.4v-1.68a.2.2,0,0,0,0-.1l-1.34-2.38h.34l1.2,2.13,1.19-2.13h.33l-1.37,2.41a.11.11,0,0,0,0,.08v1.67Z"/><path class="cls-11" d="M599.53,160.26a1,1,0,0,0,1,.91.84.84,0,0,0,.93-.85c0-.51-.21-.73-1-1s-1.12-.51-1.12-1.11a1,1,0,0,1,1.15-1,1.1,1.1,0,0,1,1.2,1.07h-.3a.83.83,0,0,0-.91-.79c-.55,0-.82.28-.82.72s.21.63.91.85c1,.32,1.21.69,1.21,1.25a1.14,1.14,0,0,1-1.26,1.16,1.21,1.21,0,0,1-1.33-1.19Z"/><path class="cls-11" d="M604.18,157.53h-1.25v-.29h2.8v.29h-1.25v3.87h-.3Z"/><path class="cls-11" d="M609.32,159.35h-1.87v1.77h2l0,.28h-2.3v-4.16h2.26v.28h-2v1.55h1.87Z"/><path class="cls-11" d="M614.38,159.49c0-.8,0-1.57,0-2h0c-.19.68-.95,2.7-1.41,3.9h-.31c-.35-1-1.13-3.14-1.34-3.9h0c0,.48,0,1.42,0,2.14v1.76h-.29v-4.16h.45c.51,1.4,1.17,3.25,1.33,3.79h0c.08-.31.85-2.39,1.38-3.79h.45v4.16h-.3Z"/><path class="cls-11" d="M616.59,160.26a1,1,0,0,0,1,.91.84.84,0,0,0,.93-.85c0-.51-.21-.73-1-1s-1.12-.51-1.12-1.11a1,1,0,0,1,1.16-1,1.11,1.11,0,0,1,1.2,1.07h-.31a.83.83,0,0,0-.91-.79c-.55,0-.82.28-.82.72s.21.63.91.85c1,.32,1.21.69,1.21,1.25a1.14,1.14,0,0,1-1.26,1.16,1.22,1.22,0,0,1-1.33-1.19Z"/><path class="cls-11" d="M623,156.73V163h-.28v-6.25Z"/><path class="cls-11" d="M628,157.53h-1.24v-.29h2.8v.29h-1.26v3.87H628Z"/><path class="cls-11" d="M633.82,159.29c0,1.2-.53,2.17-1.66,2.17s-1.63-.87-1.63-2.15.56-2.13,1.67-2.13S633.82,158,633.82,159.29Zm-3,0c0,1.07.42,1.89,1.33,1.89s1.33-.83,1.33-1.88-.43-1.83-1.32-1.83S630.85,158.29,630.85,159.29Z"/><path class="cls-11" d="M638.6,159.29c0,1.2-.53,2.17-1.66,2.17s-1.63-.87-1.63-2.15.56-2.13,1.67-2.13S638.6,158,638.6,159.29Zm-3,0c0,1.07.43,1.89,1.33,1.89s1.34-.83,1.34-1.88-.44-1.83-1.32-1.83S635.63,158.29,635.63,159.29Z"/><path class="cls-11" d="M640.32,157.24h.3v3.88h2l-.06.28h-2.28Z"/><path class="cls-11" d="M644.17,160.26a1,1,0,0,0,1,.91.83.83,0,0,0,.92-.85c0-.51-.2-.73-1-1s-1.12-.51-1.12-1.11a1,1,0,0,1,1.16-1,1.11,1.11,0,0,1,1.2,1.07h-.3a.84.84,0,0,0-.92-.79c-.54,0-.82.28-.82.72s.22.63.92.85c1,.32,1.2.69,1.2,1.25a1.13,1.13,0,0,1-1.26,1.16,1.21,1.21,0,0,1-1.32-1.19Z"/></svg>