<svg id="Layer_1" data-name="Layer 1" xmlns="http://www.w3.org/2000/svg" xmlns:xlink="http://www.w3.org/1999/xlink" viewBox="0 0 1007 249.77"><defs><style>.cls-1{font-size:81px;letter-spacing:0.02em;}.cls-1,.cls-16,.cls-18,.cls-20,.cls-27,.cls-28{fill:#b3b3b3;}.cls-1,.cls-16,.cls-20,.cls-22,.cls-28,.cls-30,.cls-34,.cls-7{font-family:MyriadPro-Semibold, Myriad Pro;font-weight:600;}.cls-2{letter-spacing:0.02em;}.cls-3{letter-spacing:-0.02em;}.cls-4{fill:none;}.cls-5{stroke:#000;stroke-miterlimit:10;stroke-width:0.5px;}.cls-6{font-size:37px;letter-spacing:0.04em;}.cls-12,.cls-14,.cls-18,.cls-26,.cls-36,.cls-6{font-family:YuGothic-Medium, Yu Gothic;font-weight:500;}.cls-16,.cls-7{font-size:30px;letter-spacing:0.02em;}.cls-8{letter-spacing:0.02em;}.cls-9{letter-spacing:0.02em;}.cls-10{letter-spacing:-0.02em;}.cls-11{fill:red;}.cls-12,.cls-14,.cls-18{font-size:13.05px;}.cls-12,.cls-18{letter-spacing:0.08em;}.cls-13{letter-spacing:0.05em;}.cls-14{letter-spacing:0.39em;}.cls-15{letter-spacing:0.37em;}.cls-17{letter-spacing:0.02em;}.cls-19{letter-spacing:0.06em;}.cls-20,.cls-22,.cls-28,.cls-30,.cls-34{font-size:25.29px;}.cls-20{letter-spacing:-0.07em;}.cls-21{letter-spacing:-0.08em;}.cls-22{letter-spacing:-0.08em;}.cls-23{letter-spacing:-0.08em;}.cls-24{letter-spacing:-0.13em;}.cls-25{letter-spacing:-0.16em;}.cls-26,.cls-36{font-size:9.5px;}.cls-26{letter-spacing:-0.08em;}.cls-27{font-family:YuGothic-Regular, Yu Gothic;font-weight:400;}.cls-28{letter-spacing:-0.07em;}.cls-29{letter-spacing:-0.08em;}.cls-30,.cls-34,.cls-36{fill:#333;}.cls-30{letter-spacing:-0.08em;}.cls-31{letter-spacing:-0.09em;}.cls-32{letter-spacing:-0.08em;}.cls-33{letter-spacing:-0.08em;}.cls-34{letter-spacing:-0.08em;}.cls-35{letter-spacing:-0.1em;}.cls-36{letter-spacing:-0.08em;}</style><symbol id="brand-icon" data-name="brand-icon" viewBox="0 0 504 146.6"><text class="cls-1" transform="translate(0 89.49) scale(1.05 1.32)">EL<tspan class="cls-2" x="84.4" y="0">E</tspan><tspan x="128.14" y="0" xml:space="preserve">V  </tspan><tspan class="cls-3" x="214.48" y="0"> </tspan><tspan x="229.39" y="0">TE</tspan></text><polygon class="cls-4" points="213 22.61 189.5 38.55 189.5 49.48 236.5 49.48 236.5 38.55 213 22.61"/><polygon class="cls-4" points="236.5 31.3 236.5 11.48 189.5 11.48 189.5 31.3 213 15.36 236.5 31.3"/><polygon class="cls-5" points="236.5 38.55 236.5 31.3 213 15.36 189.5 31.3 189.5 38.55 213 22.61 236.5 38.55"/><polygon class="cls-4" points="213 71.61 189.5 87.56 189.5 98.48 236.5 98.48 236.5 87.56 213 71.61"/><polygon class="cls-4" points="236.5 80.3 236.5 60.48 189.5 60.48 189.5 80.3 213 64.36 236.5 80.3"/><polygon class="cls-5" points="236.5 87.56 236.5 80.3 213 64.36 189.5 80.3 189.5 87.56 213 71.61 236.5 87.56"/><polygon class="cls-4" points="213 47.61 189.5 63.55 189.5 74.48 236.5 74.48 236.5 63.55 213 47.61"/><polygon class="cls-4" points="236.5 56.3 236.5 36.48 189.5 36.48 189.5 56.3 213 40.36 236.5 56.3"/><polygon class="cls-5" points="236.5 63.55 236.5 56.3 213 40.36 189.5 56.3 189.5 63.55 213 47.61 236.5 63.55"/><text class="cls-6" transform="translate(58.17 135.62) scale(0.73 1)">C O A C H I N G</text></symbol></defs><text class="cls-7" transform="translate(420.46 140.89) scale(1 1.32)">EL<tspan class="cls-8" x="31.26" y="0">E</tspan><tspan class="cls-9" x="47.45" y="0" xml:space="preserve">V  </tspan><tspan class="cls-10" x="79.43" y="0"> </tspan><tspan x="84.95" y="0">TE</tspan></text><polygon class="cls-4" points="495.55 117.02 487.26 122.92 487.26 126.97 503.83 126.97 503.83 122.92 495.55 117.02"/><polygon class="cls-4" points="503.83 120.24 503.83 112.9 487.26 112.9 487.26 120.24 495.55 114.33 503.83 120.24"/><polygon class="cls-11" points="503.83 122.92 503.83 120.24 495.55 114.33 487.26 120.24 487.26 122.92 495.55 117.02 503.83 122.92"/><polygon class="cls-4" points="495.55 135.16 487.26 141.07 487.26 145.12 503.83 145.12 503.83 141.07 495.55 135.16"/><polygon class="cls-4" points="503.83 138.38 503.83 131.04 487.26 131.04 487.26 138.38 495.55 132.48 503.83 138.38"/><polygon class="cls-11" points="503.83 141.07 503.83 138.38 495.55 132.48 487.26 138.38 487.26 141.07 495.55 135.16 503.83 141.07"/><polygon class="cls-4" points="495.55 126.28 487.26 132.18 487.26 136.23 503.83 136.23 503.83 132.18 495.55 126.28"/><polygon class="cls-4" points="503.83 129.5 503.83 122.16 487.26 122.16 487.26 129.5 495.55 123.59 503.83 129.5"/><polygon class="cls-11" points="503.83 132.18 503.83 129.5 495.55 123.59 487.26 129.5 487.26 132.18 495.55 126.28 503.83 132.18"/><polygon points="784.19 122.92 784.19 120.24 775.91 114.33 767.62 120.24 767.62 122.92 775.91 117.02 784.19 122.92"/><polygon points="784.19 141.07 784.19 138.38 775.91 132.48 767.62 138.38 767.62 141.07 775.91 135.16 784.19 141.07"/><polygon points="784.19 132.18 784.19 129.5 775.91 123.59 767.62 129.5 767.62 132.18 775.91 126.28 784.19 132.18"/><polygon class="cls-11" points="643.75 122.3 643.75 119.62 635.46 113.71 627.18 119.62 627.18 122.3 635.46 116.4 643.75 122.3"/><polygon class="cls-11" points="643.75 140.45 643.75 137.76 635.46 131.86 627.18 137.76 627.18 140.45 635.46 134.54 643.75 140.45"/><polygon class="cls-11" points="643.75 131.56 643.75 128.88 635.46 122.97 627.18 128.88 627.18 131.56 635.46 125.66 643.75 131.56"/><text class="cls-12" transform="translate(449.59 156.67) scale(0.73 1)">COM<tspan class="cls-13" x="33.58" y="0">P</tspan><tspan x="42.87" y="0">ANIES</tspan></text><text class="cls-14" transform="translate(720.75 155.46) scale(0.73 1)">C<tspan class="cls-15" x="13.96" y="0">OA</tspan><tspan x="41.69" y="0">CHING</tspan></text><text class="cls-16" transform="translate(560.37 140.27) scale(1 1.32)">EL<tspan class="cls-17" x="31.26" y="0">E</tspan><tspan x="47.45" y="0" xml:space="preserve">V  </tspan><tspan class="cls-10" x="79.43" y="0"> </tspan><tspan x="84.95" y="0">TE</tspan></text><text class="cls-16" transform="translate(700.82 141.08) scale(1 1.32)">EL<tspan class="cls-17" x="31.26" y="0">E</tspan><tspan x="47.45" y="0" xml:space="preserve">V  </tspan><tspan class="cls-10" x="79.43" y="0"> </tspan><tspan x="84.95" y="0">TE</tspan></text><text class="cls-18" transform="translate(566.51 155.42) scale(0.73 1)">LEVER<tspan class="cls-19" x="46.36" y="0">A</tspan><tspan x="55.68" y="0">GE SERVICES</tspan></text><use width="504" height="146.6" transform="translate(128.5 37.39) scale(0.68 0.72)" xlink:href="#brand-icon"/><text class="cls-20" transform="translate(479.29 198.81) scale(1.23 1.32)">k<tspan class="cls-21" x="11.05" y="0">w </tspan></text><text class="cls-22" transform="translate(517.69 198.81) scale(0.86 0.92)">INN<tspan class="cls-23" x="34.79" y="0">O</tspan><tspan class="cls-24" x="50.49" y="0">V</tspan><tspan class="cls-25" x="62.28" y="0">A</tspan><tspan x="74.29" y="0">TE</tspan></text><text class="cls-26" transform="translate(481.17 209.2) scale(1.11 1)">KELLER<tspan class="cls-27" x="31.45" y="0">WILLIAMS.</tspan></text><text class="cls-28" transform="translate(615.59 198.81) scale(1.31 1.32)">k<tspan class="cls-29" x="11.05" y="0">w </tspan></text><text class="cls-30" transform="translate(656.44 198.81) scale(0.92 0.92)">M<tspan class="cls-31" x="18.89" y="0">Y</tspan><tspan class="cls-32" x="31.08" y="0">R</tspan><tspan class="cls-33" x="43.57" y="0">TLE</tspan></text><text class="cls-34" transform="translate(726.4 198.81) scale(1.31 1.32)"> </text><text class="cls-30" transform="translate(730.61 198.81) scale(0.92 0.92)">BE<tspan class="cls-35" x="23.54" y="0">A</tspan><tspan class="cls-33" x="37.07" y="0">CH</tspan></text><text class="cls-36" transform="translate(617.58 209.2) scale(1.12 1)">KELLER<tspan class="cls-27" x="31.45" y="0">WILLIAMS.</tspan></text></svg>