<svg id="Layer_1" data-name="Layer 1" xmlns="http://www.w3.org/2000/svg" xmlns:xlink="http://www.w3.org/1999/xlink" viewBox="0 0 1007 249.77"><defs><style>.cls-1{font-size:81px;letter-spacing:0.02em;}.cls-1,.cls-17,.cls-19,.cls-21,.cls-28,.cls-29,.cls-37{fill:#b3b3b3;}.cls-1,.cls-17,.cls-21,.cls-23,.cls-29,.cls-31,.cls-34,.cls-7{font-family:MyriadPro-Semibold, Myriad Pro;font-weight:600;}.cls-2{letter-spacing:0.02em;}.cls-3{letter-spacing:-0.02em;}.cls-4{fill:none;}.cls-5{stroke:#000;stroke-miterlimit:10;stroke-width:0.5px;}.cls-6{font-size:37px;letter-spacing:0.04em;}.cls-12,.cls-15,.cls-19,.cls-27,.cls-36,.cls-6{font-family:YuGothic-Medium, Yu Gothic;font-weight:500;}.cls-17,.cls-7{font-size:34.28px;letter-spacing:0.02em;}.cls-8{letter-spacing:0.03em;}.cls-9{letter-spacing:0.02em;}.cls-10{letter-spacing:-0.02em;}.cls-11{fill:red;}.cls-12,.cls-15,.cls-19{font-size:14.91px;}.cls-12,.cls-19{letter-spacing:0.08em;}.cls-13{letter-spacing:0.05em;}.cls-14{letter-spacing:0.08em;}.cls-15{letter-spacing:0.39em;}.cls-16{letter-spacing:0.37em;}.cls-18{letter-spacing:0.02em;}.cls-20{letter-spacing:0.06em;}.cls-21,.cls-23,.cls-29,.cls-31,.cls-34{font-size:28.9px;}.cls-21{letter-spacing:-0.07em;}.cls-22{letter-spacing:-0.08em;}.cls-23{letter-spacing:-0.08em;}.cls-24{letter-spacing:-0.08em;}.cls-25{letter-spacing:-0.14em;}.cls-26{letter-spacing:-0.16em;}.cls-27,.cls-36{font-size:10.86px;}.cls-27{letter-spacing:-0.08em;}.cls-28,.cls-37{font-family:YuGothic-Regular, Yu Gothic;font-weight:400;}.cls-29{letter-spacing:-0.07em;}.cls-30{letter-spacing:-0.08em;}.cls-31,.cls-34,.cls-36{fill:#333;}.cls-31{letter-spacing:-0.08em;}.cls-32{letter-spacing:-0.09em;}.cls-33{letter-spacing:-0.07em;}.cls-34{letter-spacing:-0.08em;}.cls-35{letter-spacing:-0.1em;}.cls-36{letter-spacing:-0.08em;}.cls-37{letter-spacing:-0.08em;}</style><symbol id="brand-icon" data-name="brand-icon" viewBox="0 0 504 146.6"><text class="cls-1" transform="translate(0 89.49) scale(1.05 1.32)">EL<tspan class="cls-2" x="84.4" y="0">E</tspan><tspan x="128.14" y="0" xml:space="preserve">V  </tspan><tspan class="cls-3" x="214.48" y="0"> </tspan><tspan x="229.39" y="0">TE</tspan></text><polygon class="cls-4" points="213 22.61 189.5 38.55 189.5 49.48 236.5 49.48 236.5 38.55 213 22.61"/><polygon class="cls-4" points="236.5 31.3 236.5 11.48 189.5 11.48 189.5 31.3 213 15.36 236.5 31.3"/><polygon class="cls-5" points="236.5 38.55 236.5 31.3 213 15.36 189.5 31.3 189.5 38.55 213 22.61 236.5 38.55"/><polygon class="cls-4" points="213 71.61 189.5 87.56 189.5 98.48 236.5 98.48 236.5 87.56 213 71.61"/><polygon class="cls-4" points="236.5 80.3 236.5 60.48 189.5 60.48 189.5 80.3 213 64.36 236.5 80.3"/><polygon class="cls-5" points="236.5 87.56 236.5 80.3 213 64.36 189.5 80.3 189.5 87.56 213 71.61 236.5 87.56"/><polygon class="cls-4" points="213 47.61 189.5 63.55 189.5 74.48 236.5 74.48 236.5 63.55 213 47.61"/><polygon class="cls-4" points="236.5 56.3 236.5 36.48 189.5 36.48 189.5 56.3 213 40.36 236.5 56.3"/><polygon class="cls-5" points="236.5 63.55 236.5 56.3 213 40.36 189.5 56.3 189.5 63.55 213 47.61 236.5 63.55"/><text class="cls-6" transform="translate(58.17 135.62) scale(0.73 1)">C O A C H I N G</text></symbol></defs><text class="cls-7" transform="translate(414.92 143.24) scale(0.93 1.32)">EL<tspan class="cls-8" x="35.72" y="0">E</tspan><tspan class="cls-9" x="54.23" y="0" xml:space="preserve">V  </tspan><tspan class="cls-10" x="90.78" y="0"> </tspan><tspan x="97.08" y="0">TE</tspan></text><polygon class="cls-4" points="495.02 115.89 486.18 122.64 486.18 127.27 503.86 127.27 503.86 122.64 495.02 115.89"/><polygon class="cls-4" points="503.86 119.57 503.86 111.19 486.18 111.19 486.18 119.57 495.02 112.83 503.86 119.57"/><polygon class="cls-11" points="503.86 122.64 503.86 119.57 495.02 112.83 486.18 119.57 486.18 122.64 495.02 115.89 503.86 122.64"/><polygon class="cls-4" points="495.02 136.63 486.18 143.38 486.18 148.01 503.86 148.01 503.86 143.38 495.02 136.63"/><polygon class="cls-4" points="503.86 140.31 503.86 131.92 486.18 131.92 486.18 140.31 495.02 133.56 503.86 140.31"/><polygon class="cls-11" points="503.86 143.38 503.86 140.31 495.02 133.56 486.18 140.31 486.18 143.38 495.02 136.63 503.86 143.38"/><polygon class="cls-4" points="495.02 126.47 486.18 133.22 486.18 137.85 503.86 137.85 503.86 133.22 495.02 126.47"/><polygon class="cls-4" points="503.86 130.15 503.86 121.77 486.18 121.77 486.18 130.15 495.02 123.41 503.86 130.15"/><polygon class="cls-11" points="503.86 133.22 503.86 130.15 495.02 123.41 486.18 130.15 486.18 133.22 495.02 126.47 503.86 133.22"/><polygon points="802.91 122.64 802.91 119.57 794.07 112.83 785.23 119.57 785.23 122.64 794.07 115.89 802.91 122.64"/><polygon points="802.91 143.38 802.91 140.31 794.07 133.56 785.23 140.31 785.23 143.38 794.07 136.63 802.91 143.38"/><polygon points="802.91 133.22 802.91 130.15 794.07 123.41 785.23 130.15 785.23 133.22 794.07 126.47 802.91 133.22"/><polygon class="cls-11" points="653.1 121.94 653.1 118.87 644.26 112.12 635.42 118.87 635.42 121.94 644.26 115.19 653.1 121.94"/><polygon class="cls-11" points="653.1 142.67 653.1 139.6 644.26 132.86 635.42 139.6 635.42 142.67 644.26 135.92 653.1 142.67"/><polygon class="cls-11" points="653.1 132.52 653.1 129.45 644.26 122.7 635.42 129.45 635.42 132.52 644.26 125.77 653.1 132.52"/><text class="cls-12" transform="translate(446 161.21) scale(0.68 1)">COM<tspan class="cls-13" x="38.38" y="0">P</tspan><tspan class="cls-14" x="49" y="0">ANIES</tspan></text><text class="cls-15" transform="translate(735.23 159.83) scale(0.68 1)">C<tspan class="cls-16" x="15.96" y="0">OA</tspan><tspan x="47.65" y="0">CHING</tspan></text><text class="cls-17" transform="translate(564.16 142.48) scale(0.93 1.32)">EL<tspan class="cls-18" x="35.72" y="0">E</tspan><tspan x="54.23" y="0" xml:space="preserve">V  </tspan><tspan class="cls-10" x="90.78" y="0"> </tspan><tspan x="97.08" y="0">TE</tspan></text><text class="cls-17" transform="translate(713.97 143.27) scale(0.93 1.32)">EL<tspan class="cls-18" x="35.72" y="0">E</tspan><tspan x="54.23" y="0" xml:space="preserve">V  </tspan><tspan class="cls-10" x="90.78" y="0"> </tspan><tspan x="97.08" y="0">TE</tspan></text><text class="cls-19" transform="translate(570.71 159.78) scale(0.68 1)">LEVER<tspan class="cls-20" x="52.98" y="0">A</tspan><tspan x="63.64" y="0">GE SERVICES</tspan></text><use width="504" height="146.6" transform="translate(103.5 24.89) scale(0.73 0.82)" xlink:href="#brand-icon"/><text class="cls-21" transform="translate(477.68 209.37) scale(1.15 1.32)">k<tspan class="cls-22" x="12.63" y="0">w </tspan></text><text class="cls-23" transform="translate(518.63 209.37) scale(0.8 0.92)">INN<tspan class="cls-24" x="39.76" y="0">O</tspan><tspan class="cls-25" x="57.71" y="0">V</tspan><tspan class="cls-26" x="71.17" y="0">A</tspan><tspan x="84.9" y="0">TE</tspan></text><text class="cls-27" transform="translate(479.68 221.25) scale(1.03 1)">KELLER<tspan class="cls-28" x="35.95" y="0">WILLIAMS.</tspan></text><text class="cls-29" transform="translate(623.06 209.37) scale(1.22 1.32)">k<tspan class="cls-30" x="12.63" y="0">w </tspan></text><text class="cls-31" transform="translate(666.64 209.37) scale(0.86 0.92)">M<tspan class="cls-32" x="21.59" y="0">Y</tspan><tspan class="cls-33" x="35.51" y="0">R</tspan><tspan x="49.79" y="0">TLE</tspan></text><text class="cls-34" transform="translate(741.26 209.37) scale(1.22 1.32)"> </text><text class="cls-31" transform="translate(745.75 209.37) scale(0.86 0.92)">BE<tspan class="cls-35" x="26.9" y="0">A</tspan><tspan x="42.36" y="0">CH</tspan></text><text class="cls-36" transform="translate(625.19 221.25) scale(1.05 1)">KELLER<tspan class="cls-37" x="35.95" y="0">WILLIAMS.</tspan></text></svg>