<svg id="Layer_1" data-name="Layer 1" xmlns="http://www.w3.org/2000/svg" xmlns:xlink="http://www.w3.org/1999/xlink" viewBox="0 0 900 225"><defs><style>.cls-1{fill:#b3b3b3;}.cls-2{fill:none;}.cls-3{stroke:#000;stroke-miterlimit:10;stroke-width:0.5px;}.cls-4{fill:red;}.cls-5{fill:#333;}</style><symbol id="brand-icon" data-name="brand-icon" viewBox="0 0 504 146.6"><path class="cls-1" d="M38.1,57.52H16.5V78.69H40.66v10.8H6V17.43H39.38v10.8H16.5v18.6H38.1Z"/><path class="cls-1" d="M51.29,17.43H61.75V78.48H85.31v11h-34Z"/><path class="cls-1" d="M126.73,57.52H105.12V78.69h24.16v10.8H94.66V17.43H128v10.8H105.12v18.6h21.61Z"/><path class="cls-1" d="M153.69,89.49,135.14,17.43h11.4l7.83,32.72c2.21,9.08,4.08,17.53,5.61,26.3h.17c1.53-8.55,3.57-17.32,5.87-26.09l8.33-32.93h11.14L165.68,89.49Z"/><path class="cls-1" d="M257.87,28.44H241.54v-11h43.29v11h-16.5V89.49H257.87Z"/><path class="cls-1" d="M325.06,57.52H303.45V78.69h24.16v10.8H293V17.43h33.34v10.8H303.45v18.6h21.61Z"/><polygon class="cls-2" points="213 22.61 189.5 38.55 189.5 49.48 236.5 49.48 236.5 38.55 213 22.61"/><polygon class="cls-2" points="236.5 31.3 236.5 11.48 189.5 11.48 189.5 31.3 213 15.36 236.5 31.3"/><polygon class="cls-3" points="236.5 38.55 236.5 31.3 213 15.36 189.5 31.3 189.5 38.55 213 22.61 236.5 38.55"/><polygon class="cls-2" points="213 71.61 189.5 87.56 189.5 98.48 236.5 98.48 236.5 87.56 213 71.61"/><polygon class="cls-2" points="236.5 80.3 236.5 60.48 189.5 60.48 189.5 80.3 213 64.36 236.5 80.3"/><polygon class="cls-3" points="236.5 87.56 236.5 80.3 213 64.36 189.5 80.3 189.5 87.56 213 71.61 236.5 87.56"/><polygon class="cls-2" points="213 47.61 189.5 63.55 189.5 74.48 236.5 74.48 236.5 63.55 213 47.61"/><polygon class="cls-2" points="236.5 56.3 236.5 36.48 189.5 36.48 189.5 56.3 213 40.36 236.5 56.3"/><polygon class="cls-3" points="236.5 63.55 236.5 56.3 213 40.36 189.5 56.3 189.5 63.55 213 47.61 236.5 63.55"/><path d="M75.44,115l-2.35.86q-1-6-4.85-6c-1.88,0-3.36,1.1-4.42,3.32a18.89,18.89,0,0,0-1.47,8.15q0,5.82,1.89,8.91a4.61,4.61,0,0,0,4,2.56c2.71,0,4.41-2,5.08-6.11l2.25,1q-1.63,7.74-7.35,7.73c-2.65,0-4.74-1.39-6.27-4.19a20.26,20.26,0,0,1-2.1-9.9q0-7,2.69-10.93a6.74,6.74,0,0,1,5.68-3.25,6.1,6.1,0,0,1,4.92,2.35A11.83,11.83,0,0,1,75.44,115Z"/><path d="M96.6,107.2q4,0,6.21,4.17a20.82,20.82,0,0,1,2,9.92q0,7-2.63,10.93a6.59,6.59,0,0,1-5.62,3.25c-2.63,0-4.69-1.39-6.2-4.19a20.76,20.76,0,0,1-2-9.9q0-7.06,2.65-10.93A6.58,6.58,0,0,1,96.6,107.2Zm0,2.66c-1.87,0-3.31,1.1-4.35,3.3a19.78,19.78,0,0,0-1.4,8.17c0,3.91.6,6.89,1.81,8.92a4.49,4.49,0,0,0,3.94,2.55q2.82,0,4.36-3.32a19.64,19.64,0,0,0,1.4-8.15q0-5.91-1.8-8.94A4.5,4.5,0,0,0,96.6,109.86Z"/><path d="M126.82,107.69,133.25,135h-2.46l-1.94-8.65h-7.13l-2,8.65H117.4l6.43-27.26Zm1.51,16.1-1.48-6.63q-.59-2.55-1.42-7H125q-.67,3.86-1.38,7l-1.47,6.67Z"/><path d="M161.37,115l-2.35.86q-1-6-4.85-6c-1.88,0-3.35,1.1-4.42,3.32a18.89,18.89,0,0,0-1.47,8.15q0,5.82,1.89,8.91a4.62,4.62,0,0,0,4,2.56c2.71,0,4.41-2,5.08-6.11l2.25,1q-1.63,7.74-7.35,7.73c-2.65,0-4.73-1.39-6.27-4.19a20.27,20.27,0,0,1-2.09-9.9q0-7,2.69-10.93a6.71,6.71,0,0,1,5.67-3.25,6.14,6.14,0,0,1,4.93,2.35A11.93,11.93,0,0,1,161.37,115Z"/><path d="M190,107.69V135h-2.36V122h-9.83V135h-2.36V107.69h2.36v11.58h9.83V107.69Z"/><path d="M208,107.69V135h-2.35V107.69Z"/><path d="M238.32,107.69V135h-3L229,118.46q-.15-.39-2.85-7.95h-.41c0,.62,0,2.18.07,4.68,0,1.61,0,3,0,4.08V135h-2.2V107.69h3.67L233.08,123c.48,1.26,1,2.74,1.58,4.47.68,2,1.09,3.28,1.24,3.7h.43q-.21-7.78-.21-8.94V107.69Z"/><path d="M268.39,114.75l-2.3.82q-1.06-5.71-4.86-5.71c-1.91,0-3.4,1.1-4.47,3.32a19,19,0,0,0-1.46,8.15q0,5.88,1.82,8.91a4.6,4.6,0,0,0,4.08,2.56q2.55,0,3.91-2.94a15.56,15.56,0,0,0,1.19-6H261v-2.62h7.52v13.84h-1.66l-.26-4.37a7.78,7.78,0,0,1-2.44,3.7,5,5,0,0,1-3.16,1.08q-3.94,0-6.18-4.17a20.94,20.94,0,0,1-2-9.93q0-7,2.7-10.92a6.76,6.76,0,0,1,5.69-3.25,6.13,6.13,0,0,1,4.89,2.33A11.76,11.76,0,0,1,268.39,114.75Z"/></symbol></defs><path d="M372.1,107H363v10.08h10.22v5.14H358.53V87.88h14.11V93H363v8.86h9.14Z"/><path d="M377.67,87.88h4.43V117h10v5.24h-14.4Z"/><path d="M409.59,107h-9.14v10.08h10.22v5.14H396V87.88h14.11V93h-9.68v8.86h9.14Z"/><path d="M421,122.19l-7.85-34.31H418l3.31,15.58c.94,4.32,1.73,8.35,2.38,12.52h.07c.65-4.07,1.51-8.25,2.48-12.42l3.53-15.68h4.71l-8.38,34.31Z"/><path d="M465.07,93.12h-6.91V87.88h18.32v5.24h-7v29.07h-4.43Z"/><path d="M493.49,107h-9.13v10.08h10.21v5.14H479.93V87.88H494V93h-9.67v8.86h9.13Z"/><polygon class="cls-2" points="440.46 102.38 430.52 109.97 430.52 115.18 450.4 115.18 450.4 109.97 440.46 102.38"/><polygon class="cls-2" points="450.4 106.52 450.4 97.08 430.52 97.08 430.52 106.52 440.46 98.93 450.4 106.52"/><polygon class="cls-4" points="456.4 98.97 456.4 95.52 446.46 87.93 436.52 95.52 436.52 98.97 446.46 91.38 456.4 98.97"/><polygon class="cls-2" points="440.46 125.71 430.52 133.31 430.52 138.51 450.4 138.51 450.4 133.31 440.46 125.71"/><polygon class="cls-2" points="450.4 129.85 450.4 120.42 430.52 120.42 430.52 129.85 440.46 122.26 450.4 129.85"/><polygon class="cls-4" points="456.4 122.31 456.4 118.85 446.46 111.26 436.52 118.85 436.52 122.31 446.46 114.71 456.4 122.31"/><polygon class="cls-2" points="440.46 114.28 430.52 121.88 430.52 127.08 450.4 127.08 450.4 121.88 440.46 114.28"/><polygon class="cls-2" points="450.4 118.43 450.4 108.99 430.52 108.99 430.52 118.43 440.46 110.83 450.4 118.43"/><polygon class="cls-4" points="456.4 110.88 456.4 107.43 446.46 99.83 436.52 107.43 436.52 110.88 446.46 103.28 456.4 110.88"/><polygon points="792.83 98.97 792.83 95.52 782.89 87.93 772.95 95.52 772.95 98.97 782.89 91.38 792.83 98.97"/><polygon points="792.83 122.31 792.83 118.85 782.89 111.26 772.95 118.85 772.95 122.31 782.89 114.71 792.83 122.31"/><polygon points="792.83 110.88 792.83 107.43 782.89 99.83 772.95 107.43 772.95 110.88 782.89 103.28 792.83 110.88"/><polygon class="cls-4" points="624.3 98.18 624.3 94.73 614.35 87.14 604.41 94.73 604.41 98.18 614.35 90.59 624.3 98.18"/><polygon class="cls-4" points="624.3 121.51 624.3 118.06 614.35 110.47 604.41 118.06 604.41 121.51 614.35 113.92 624.3 121.51"/><polygon class="cls-4" points="624.3 110.08 624.3 106.63 614.35 99.04 604.41 106.63 604.41 110.08 614.35 102.49 624.3 110.08"/><path d="M398.61,133l-1,.39c-.28-1.82-1-2.73-2.05-2.73-.8,0-1.42.51-1.87,1.51a9,9,0,0,0-.62,3.69,8.18,8.18,0,0,0,.8,4,1.93,1.93,0,0,0,1.69,1.16c1.15,0,1.86-.92,2.15-2.76l.95.47q-.69,3.51-3.11,3.51a3,3,0,0,1-2.65-1.9,9.79,9.79,0,0,1-.89-4.49,9.13,9.13,0,0,1,1.14-5,2.79,2.79,0,0,1,2.4-1.47,2.52,2.52,0,0,1,2.08,1.06A5.53,5.53,0,0,1,398.61,133Z"/><path d="M404.27,129.48a2.91,2.91,0,0,1,2.63,1.89,10.1,10.1,0,0,1,.86,4.5,9.26,9.26,0,0,1-1.11,4.95,2.76,2.76,0,0,1-2.38,1.48,2.91,2.91,0,0,1-2.62-1.9,9.94,9.94,0,0,1-.87-4.49,9.27,9.27,0,0,1,1.12-5A2.77,2.77,0,0,1,404.27,129.48Zm0,1.2c-.79,0-1.4.5-1.84,1.5a9.41,9.41,0,0,0-.59,3.7,8.55,8.55,0,0,0,.76,4.05,1.9,1.9,0,0,0,1.67,1.15c.8,0,1.41-.5,1.84-1.5a9.36,9.36,0,0,0,.6-3.7,8.67,8.67,0,0,0-.76-4A1.92,1.92,0,0,0,404.27,130.68Z"/><path d="M418.74,129.7v12.36h-1v-7.27l0-3.9h-.2c-.28,1.55-.53,2.82-.74,3.81l-1.6,7.36H414l-1.56-7.35c-.12-.53-.26-1.2-.42-2s-.3-1.52-.35-1.8h-.2v.57l0,3.36v7.24h-.89V129.7h1.67l1.52,7.28c.07.36.21,1,.41,2l.36,1.78h.2c0-.19.3-1.44.79-3.74l1.53-7.31Z"/><path d="M422.07,129.7h2.81q2.92,0,2.93,3.43a3.78,3.78,0,0,1-.88,2.7,2.79,2.79,0,0,1-2.13.82h-1.75v5.41h-1Zm1,1.17v4.65h1.7c1.35,0,2-.79,2-2.37s-.66-2.28-2-2.28Z"/><path d="M433.41,129.7l2.72,12.36h-1.05l-.82-3.92h-3l-.85,3.92h-1l2.72-12.36Zm.64,7.3-.63-3c-.17-.77-.37-1.82-.6-3.17h-.18c-.19,1.17-.38,2.22-.58,3.16l-.62,3Z"/><path d="M444.81,129.7v12.36h-1.27l-2.65-7.48-1.21-3.6h-.17c0,.28,0,1,0,2.12,0,.73,0,1.35,0,1.85v7.11h-.94V129.7h1.56l2.42,6.93c.2.57.42,1.24.67,2,.28.93.46,1.49.52,1.68H444q-.09-3.53-.09-4.05V129.7Z"/><path d="M449.14,129.7v12.36h-1V129.7Z"/><path d="M457.8,129.7v1.23h-4.33v3.95h3.27v1.23h-3.27v4.72h4.4v1.23h-5.4V129.7Z"/><path d="M465.65,132.42l-1,.43c-.29-1.45-.88-2.18-1.79-2.18a1.52,1.52,0,0,0-1.3.61,2.25,2.25,0,0,0-.4,1.39,2.33,2.33,0,0,0,.44,1.55,3,3,0,0,0,1.32.81l.36.16a3.87,3.87,0,0,1,2.1,1.52,4.14,4.14,0,0,1,.43,2.07,3.87,3.87,0,0,1-.85,2.67,2.87,2.87,0,0,1-4.13,0,4.58,4.58,0,0,1-1-2.21l1-.51a3.46,3.46,0,0,0,.83,1.9,1.65,1.65,0,0,0,1.21.53,1.75,1.75,0,0,0,1.52-.69,3,3,0,0,0,0-3,3.32,3.32,0,0,0-1.47-.93l-.34-.15a3.7,3.7,0,0,1-2-1.48,4.2,4.2,0,0,1-.44-2.08,3.58,3.58,0,0,1,.77-2.38,2.37,2.37,0,0,1,1.91-.87C464.28,129.48,465.22,130.46,465.65,132.42Z"/><path d="M724,131.47l-1,.39c-.28-1.82-1-2.73-2-2.73-.79,0-1.42.51-1.87,1.51a9,9,0,0,0-.62,3.69,8.18,8.18,0,0,0,.8,4,1.94,1.94,0,0,0,1.69,1.17c1.15,0,1.86-.93,2.15-2.77l.95.47q-.69,3.51-3.11,3.51a3,3,0,0,1-2.65-1.9,9.79,9.79,0,0,1-.89-4.49,9.13,9.13,0,0,1,1.14-5,2.81,2.81,0,0,1,2.4-1.47A2.55,2.55,0,0,1,723,129,5.61,5.61,0,0,1,724,131.47Z"/><path d="M733.19,127.93a2.9,2.9,0,0,1,2.62,1.89,10,10,0,0,1,.87,4.5,9.16,9.16,0,0,1-1.12,5,2.73,2.73,0,0,1-2.37,1.48,2.93,2.93,0,0,1-2.63-1.9,10.09,10.09,0,0,1-.86-4.49,9.18,9.18,0,0,1,1.12-5A2.74,2.74,0,0,1,733.19,127.93Zm0,1.2c-.79,0-1.41.5-1.84,1.5a9.39,9.39,0,0,0-.6,3.7,8.53,8.53,0,0,0,.77,4,1.9,1.9,0,0,0,1.67,1.16c.79,0,1.41-.51,1.84-1.51a9.38,9.38,0,0,0,.59-3.7,8.55,8.55,0,0,0-.76-4.05A1.9,1.9,0,0,0,733.19,129.13Z"/><path d="M746,128.15l2.72,12.36h-1l-.82-3.92h-3l-.85,3.92h-1l2.72-12.36Zm.64,7.3-.63-3c-.17-.77-.37-1.82-.6-3.17h-.18c-.19,1.17-.38,2.22-.58,3.16l-.62,3Z"/><path d="M760.7,131.47l-1,.39c-.28-1.82-1-2.73-2.05-2.73-.79,0-1.42.51-1.87,1.51a9,9,0,0,0-.62,3.69,8.18,8.18,0,0,0,.8,4,1.94,1.94,0,0,0,1.69,1.17c1.15,0,1.87-.93,2.15-2.77l1,.47c-.46,2.34-1.49,3.51-3.11,3.51a3,3,0,0,1-2.65-1.9,9.79,9.79,0,0,1-.89-4.49,9.13,9.13,0,0,1,1.14-5,2.81,2.81,0,0,1,2.4-1.47,2.55,2.55,0,0,1,2.09,1.07A5.61,5.61,0,0,1,760.7,131.47Z"/><path d="M773,128.15v12.36h-1v-5.86h-4.16v5.86h-1V128.15h1v5.25H772v-5.25Z"/><path d="M780.89,128.15v12.36h-1V128.15Z"/><path d="M793.93,128.15v12.36h-1.27L790,133c0-.11-.45-1.31-1.21-3.6h-.17c0,.28,0,1,0,2.12,0,.73,0,1.35,0,1.85v7.11h-.93V128.15h1.56l2.42,6.93c.2.57.42,1.24.66,2,.29.93.47,1.49.53,1.68h.18q-.09-3.53-.09-4.05v-6.58Z"/><path d="M806.89,131.35l-1,.37c-.3-1.72-1-2.59-2.06-2.59-.8,0-1.43.51-1.89,1.51a9.14,9.14,0,0,0-.61,3.69,8.45,8.45,0,0,0,.76,4,2,2,0,0,0,1.73,1.17c.72,0,1.27-.45,1.65-1.34a7.38,7.38,0,0,0,.51-2.73h-2.24v-1.18h3.18v6.27h-.7l-.11-2a3.57,3.57,0,0,1-1,1.68,2.09,2.09,0,0,1-1.34.49,2.89,2.89,0,0,1-2.61-1.89,10.12,10.12,0,0,1-.86-4.51,9,9,0,0,1,1.15-4.95,2.81,2.81,0,0,1,2.4-1.47,2.51,2.51,0,0,1,2.07,1.06A5.63,5.63,0,0,1,806.89,131.35Z"/><path class="cls-1" d="M540.36,106.08h-9.14v10.08h10.22v5.14H526.8V87h14.1v5.14h-9.68V101h9.14Z"/><path class="cls-1" d="M545.94,87h4.42v29.06h10v5.24H545.94Z"/><path class="cls-1" d="M577.85,106.08h-9.13v10.08h10.21v5.14H564.29V87h14.1v5.14h-9.67V101h9.13Z"/><path class="cls-1" d="M589.26,121.3,581.42,87h4.82l3.31,15.57c.93,4.33,1.72,8.35,2.37,12.52H592c.65-4.07,1.52-8.24,2.49-12.42L598,87h4.72l-8.39,34.3Z"/><path class="cls-1" d="M633.34,92.24h-6.91V87h18.31v5.24h-7V121.3h-4.42Z"/><path class="cls-1" d="M661.76,106.08h-9.14v10.08h10.22v5.14H648.19V87H662.3v5.14h-9.68V101h9.14Z"/><path class="cls-1" d="M708.9,106.88h-9.14V117H710v5.15H695.33V87.79h14.11v5.14h-9.68v8.86h9.14Z"/><path class="cls-1" d="M714.48,87.79h4.42v29.06h10v5.25H714.48Z"/><path class="cls-1" d="M746.39,106.88h-9.14V117h10.22v5.15H732.83V87.79h14.1v5.14h-9.68v8.86h9.14Z"/><path class="cls-1" d="M757.8,122.1,750,87.79h4.82l3.31,15.57c.94,4.33,1.73,8.35,2.38,12.53h.07c.65-4.08,1.51-8.25,2.48-12.43l3.53-15.67h4.71l-8.38,34.31Z"/><path class="cls-1" d="M801.87,93H795V87.79h18.32V93h-7V122.1h-4.43Z"/><path class="cls-1" d="M830.3,106.88h-9.14V117h10.21v5.15H816.73V87.79h14.11v5.14h-9.68v8.86h9.14Z"/><path class="cls-1" d="M533.81,128.09V139.2H538v1.25h-5.19V128.09Z"/><path class="cls-1" d="M545.91,128.09v1.23h-4.33v4h3.27v1.23h-3.27v4.72H546v1.23h-5.4V128.09Z"/><path class="cls-1" d="M554.48,128.09l-2.75,12.36h-1.25l-2.71-12.36h1.08l1.45,7c.1.51.24,1.22.41,2.14l.36,1.87h.18c.06-.27.18-1,.39-2.1q.2-1.11.36-1.86l1.48-7.09Z"/><path class="cls-1" d="M562.3,128.09v1.23H558v4h3.28v1.23H558v4.72h4.41v1.23H557V128.09Z"/><path class="cls-1" d="M565,128.09h2.85q2.89,0,2.9,3.24a3.93,3.93,0,0,1-.51,2.08,2.36,2.36,0,0,1-1.28,1l2,6h-1.1L568,134.67h-2v5.78h-1Zm1,1.17v4.28h1.74c1.34,0,2-.74,2-2.2a2.22,2.22,0,0,0-.5-1.61,2,2,0,0,0-1.44-.47Z"/><path class="cls-1" d="M576.77,128.09l2.72,12.36h-1l-.82-3.92h-3l-.86,3.92h-1l2.72-12.36Zm.64,7.3-.63-3c-.16-.77-.36-1.83-.59-3.17H576c-.19,1.17-.38,2.22-.58,3.16l-.62,3Z"/><path class="cls-1" d="M587.92,131.29l-1,.37c-.3-1.72-1-2.59-2.05-2.59-.81,0-1.44.51-1.89,1.51a9.13,9.13,0,0,0-.62,3.69,8.46,8.46,0,0,0,.77,4,1.93,1.93,0,0,0,1.72,1.16c.72,0,1.27-.44,1.66-1.33a7.6,7.6,0,0,0,.5-2.73H584.8v-1.19H588v6.28h-.7l-.11-2a3.57,3.57,0,0,1-1,1.68,2.06,2.06,0,0,1-1.33.49,2.89,2.89,0,0,1-2.62-1.9,10.05,10.05,0,0,1-.85-4.5,9.11,9.11,0,0,1,1.14-4.95,2.81,2.81,0,0,1,2.4-1.47,2.53,2.53,0,0,1,2.07,1A5.62,5.62,0,0,1,587.92,131.29Z"/><path class="cls-1" d="M596.42,128.09v1.23h-4.33v4h3.28v1.23h-3.28v4.72h4.41v1.23h-5.4V128.09Z"/><path class="cls-1" d="M608.47,130.81l-1,.43c-.29-1.45-.89-2.18-1.79-2.18a1.5,1.5,0,0,0-1.3.61,2.24,2.24,0,0,0-.4,1.38,2.4,2.4,0,0,0,.43,1.56,3.1,3.1,0,0,0,1.33.81l.36.16a3.87,3.87,0,0,1,2.1,1.52,4.14,4.14,0,0,1,.43,2.07,3.83,3.83,0,0,1-.85,2.66,2.86,2.86,0,0,1-4.13,0,4.58,4.58,0,0,1-1-2.21l1-.51a3.39,3.39,0,0,0,.83,1.9,1.65,1.65,0,0,0,1.21.53,1.76,1.76,0,0,0,1.52-.69,3,3,0,0,0,0-3.05,3.32,3.32,0,0,0-1.47-.93l-.34-.15a3.7,3.7,0,0,1-2-1.48,4.2,4.2,0,0,1-.44-2.08,3.58,3.58,0,0,1,.77-2.38,2.37,2.37,0,0,1,1.9-.87C607.1,127.87,608,128.85,608.47,130.81Z"/><path class="cls-1" d="M616.76,128.09v1.23h-4.33v4h3.27v1.23h-3.27v4.72h4.41v1.23h-5.41V128.09Z"/><path class="cls-1" d="M619.45,128.09h2.85q2.9,0,2.9,3.24a3.93,3.93,0,0,1-.51,2.08,2.36,2.36,0,0,1-1.28,1l2,6h-1.1l-1.87-5.78h-2v5.78h-1Zm1,1.17v4.28h1.75c1.34,0,2-.74,2-2.2a2.22,2.22,0,0,0-.5-1.61,2,2,0,0,0-1.44-.47Z"/><path class="cls-1" d="M634,128.09l-2.74,12.36H630l-2.71-12.36h1.09l1.44,7c.11.51.24,1.22.41,2.14l.36,1.87h.19c0-.27.18-1,.38-2.1q.21-1.11.36-1.86l1.48-7.09Z"/><path class="cls-1" d="M637.45,128.09v12.36h-1V128.09Z"/><path class="cls-1" d="M646.88,131.41l-1,.39c-.28-1.82-1-2.73-2-2.73-.79,0-1.42.51-1.87,1.51a9,9,0,0,0-.62,3.69,8.18,8.18,0,0,0,.8,4,1.93,1.93,0,0,0,1.69,1.16c1.15,0,1.86-.92,2.15-2.76l.95.47c-.46,2.34-1.49,3.51-3.11,3.51a3,3,0,0,1-2.65-1.9,9.79,9.79,0,0,1-.89-4.49,9.13,9.13,0,0,1,1.14-5,2.81,2.81,0,0,1,2.4-1.47,2.54,2.54,0,0,1,2.09,1.06A5.65,5.65,0,0,1,646.88,131.41Z"/><path class="cls-1" d="M654.86,128.09v1.23h-4.33v4h3.28v1.23h-3.28v4.72h4.41v1.23h-5.4V128.09Z"/><path class="cls-1" d="M662.72,130.81l-1,.43c-.29-1.45-.89-2.18-1.8-2.18a1.53,1.53,0,0,0-1.3.61,2.3,2.3,0,0,0-.39,1.38,2.4,2.4,0,0,0,.43,1.56,3.1,3.1,0,0,0,1.33.81l.36.16a3.87,3.87,0,0,1,2.1,1.52,4.25,4.25,0,0,1,.43,2.07,3.83,3.83,0,0,1-.85,2.66,2.67,2.67,0,0,1-2.07.86,2.64,2.64,0,0,1-2.06-.9,4.58,4.58,0,0,1-1-2.21l1-.51a3.39,3.39,0,0,0,.83,1.9,1.63,1.63,0,0,0,1.21.53,1.76,1.76,0,0,0,1.52-.69,2.52,2.52,0,0,0,.4-1.48,2.43,2.43,0,0,0-.42-1.57,3.37,3.37,0,0,0-1.48-.93l-.33-.15a3.66,3.66,0,0,1-2-1.48,4.1,4.1,0,0,1-.44-2.08,3.58,3.58,0,0,1,.77-2.38,2.37,2.37,0,0,1,1.9-.87C661.35,127.87,662.28,128.85,662.72,130.81Z"/><use width="504" height="146.6" transform="translate(0 0) scale(0.82 0.92)" xlink:href="#brand-icon"/><path class="cls-1" d="M434,184.83h.07c.45-.81,1-1.71,1.46-2.44l4.41-6.74h5.53l-6.73,8.54,7.7,12.36h-5.64l-5.23-9.23-1.57,2.1v7.13h-4.6V166.08H434Z"/><path class="cls-1" d="M448.52,175.65l1.9,9.48c.41,2.23.82,4.51,1.16,6.78h.07c.38-2.27,1-4.59,1.5-6.73l2.35-9.53h3.74l2.28,9.27c.56,2.44,1.05,4.72,1.46,7h.07c.3-2.27.71-4.55,1.2-7l2-9.27h4.52l-5.72,20.9h-4.26l-2.17-8.5c-.56-2.19-1-4.16-1.38-6.69h-.07a62,62,0,0,1-1.39,6.69l-2.31,8.5h-4.3l-5.38-20.9Z"/><path d="M478.1,176.3v20.25h-3.22V176.3Z"/><path d="M479.7,196.55V176.3h3.66l4.55,8.68a60.36,60.36,0,0,1,3,6.79H491c-.21-2.71-.29-5.32-.29-8.41V176.3h3v20.25h-3.32l-4.6-8.9a74.12,74.12,0,0,1-3.17-7l-.08,0c.14,2.62.16,5.29.16,8.62v7.25Z"/><path d="M495.29,196.55V176.3H499L503.5,185a60.36,60.36,0,0,1,3,6.79h.05c-.21-2.71-.29-5.32-.29-8.41V176.3h3v20.25h-3.32l-4.6-8.9a74.12,74.12,0,0,1-3.17-7l-.08,0c.14,2.62.16,5.29.16,8.62v7.25Z"/><path d="M526.52,186.21c0,6.79-3.59,10.67-8.45,10.67S510,192.52,510,186.57c0-6.22,3.4-10.6,8.37-10.6C523.48,176,526.52,180.44,526.52,186.21Zm-13.16.3c0,4.12,1.81,7.39,4.89,7.39s4.87-3.3,4.87-7.54c0-3.82-1.65-7.42-4.87-7.42S513.36,182.33,513.36,186.51Z"/><path d="M531.15,196.55l-5.7-20.25H529l2.41,9.19c.68,2.55,1.25,4.93,1.72,7.39h.06c.47-2.4,1.09-4.87,1.8-7.33l2.56-9.25h3.43l-6.09,20.25Z"/><path d="M542.84,190.81l-1.52,5.74H538l5.65-20.25h4.11l5.73,20.25H550l-1.59-5.74Zm5-2.8-1.39-5c-.34-1.24-.62-2.62-.89-3.79h-.05c-.26,1.17-.52,2.58-.84,3.79l-1.36,5Z"/><path d="M555.11,179.39h-5V176.3H563.4v3.09h-5.07v17.16h-3.22Z"/><path d="M573.23,187.56h-6.64v5.95H574v3H563.37V176.3h10.26v3h-7v5.23h6.64Z"/><path d="M437.15,200.69l-3.39,3.62,3.75,5.38h-1.29L433,205l-1.43,1.45v3.2h-1.09v-9h1.09v4.6l4.23-4.6Z"/><path d="M444.1,200.69v.89h-4.76v2.88h3.6v.9h-3.6v3.43h4.85v.9h-5.95v-9Z"/><path d="M446.14,200.69v8.09h4.61v.91H445v-9Z"/><path d="M452.65,200.69v8.09h4.62v.91h-5.71v-9Z"/><path d="M463.93,200.69v.89h-4.76v2.88h3.6v.9h-3.6v3.43H464v.9h-5.94v-9Z"/><path d="M464.87,200.69H468c2.12,0,3.19.78,3.19,2.35a2.16,2.16,0,0,1-.56,1.52,2.6,2.6,0,0,1-1.41.75l2.22,4.38h-1.21l-2.05-4.21h-2.25v4.21h-1.07Zm1.07.85v3.11h1.92c1.48,0,2.22-.53,2.22-1.6a1.29,1.29,0,0,0-.56-1.17,2.87,2.87,0,0,0-1.58-.34Z"/><path class="cls-1" d="M482.18,200.74l-2.23,8.9h-1.1l-1.33-5.5c-.2-.8-.39-1.7-.59-2.7h-.14c-.15.86-.34,1.75-.58,2.68l-1.38,5.52h-1.11l-2.14-8.9h.88l1.23,5.43c.12.57.31,1.48.55,2.72h.14q.53-2.49.57-2.67l1.36-5.48h1.15l1.33,5.52.57,2.63h.13c0-.14.13-.62.29-1.42.1-.47.19-.87.27-1.22l1.29-5.51Z"/><path class="cls-1" d="M484,200.74v8.9h-.83v-8.9Z"/><path class="cls-1" d="M486.68,200.74v8.2h4.69v.7h-5.52v-8.9Z"/><path class="cls-1" d="M493.21,200.74v8.2h4.69v.7h-5.52v-8.9Z"/><path class="cls-1" d="M499.74,200.74v8.9h-.83v-8.9Z"/><path class="cls-1" d="M504.8,200.74l3,8.9H507l-1-2.94h-3.48l-1,2.94h-.84l3.05-8.9Zm1,5.31-.76-2.32c-.28-.81-.52-1.6-.73-2.36h-.12c-.22.79-.46,1.58-.72,2.35l-.75,2.33Z"/><path class="cls-1" d="M517.52,200.74v8.9h-.79V201.4h-.14c-.12.4-.41,1.27-.87,2.59l-2.07,5.65h-1.07L510.54,204c-.3-.83-.59-1.69-.88-2.59h-.14c0,.17,0,.35,0,.53l0,2.11v5.6h-.76v-8.9h1.4l2,5.58c.33.9.63,1.77.91,2.61h.13q.7-2,.9-2.58l2-5.61Z"/><path class="cls-1" d="M524.83,202.64l-.84.25a2.07,2.07,0,0,0-2.12-1.63,2.18,2.18,0,0,0-1.53.49,1.4,1.4,0,0,0-.48,1.1,1.48,1.48,0,0,0,.52,1.21,4,4,0,0,0,1.51.59l.37.1a4.5,4.5,0,0,1,2.3,1.11,2.14,2.14,0,0,1,.47,1.47,2.2,2.2,0,0,1-.93,1.88,3.61,3.61,0,0,1-2.18.6,3.53,3.53,0,0,1-2.17-.64,3,3,0,0,1-1.08-1.56l.83-.3a2.27,2.27,0,0,0,2.41,1.83,2.5,2.5,0,0,0,1.78-.55,1.57,1.57,0,0,0,.47-1.19,1.5,1.5,0,0,0-.5-1.23,4.52,4.52,0,0,0-1.69-.69l-.32-.09a4.21,4.21,0,0,1-2.15-1,2.12,2.12,0,0,1-.48-1.46,2.06,2.06,0,0,1,.82-1.69,3.16,3.16,0,0,1,2-.62A2.9,2.9,0,0,1,524.83,202.64Z"/><path class="cls-1" d="M527.13,208.39v1.25h-1.27v-1.25Z"/><path class="cls-1" d="M598,184.83h.08c.48-.81,1-1.71,1.55-2.44l4.7-6.74h5.88l-7.16,8.54,8.2,12.36h-6l-5.57-9.23-1.67,2.1v7.13h-4.89V166.08H598Z"/><path class="cls-1" d="M613.45,175.65l2,9.48c.44,2.23.88,4.51,1.23,6.78h.08c.4-2.27,1-4.59,1.59-6.73l2.51-9.53h4l2.42,9.27c.6,2.44,1.11,4.72,1.55,7h.08c.32-2.27.76-4.55,1.27-7l2.15-9.27h4.81l-6.08,20.9h-4.53l-2.31-8.5a68.19,68.19,0,0,1-1.47-6.69h-.08a61,61,0,0,1-1.47,6.69l-2.47,8.5h-4.57l-5.73-20.9Z"/><path class="cls-5" d="M657.35,188.28c-.11-2.61-.25-5.77-.22-8.5H657c-.61,2.47-1.39,5.2-2.22,7.75l-2.73,8.78h-2.65l-2.5-8.66c-.72-2.58-1.39-5.35-1.89-7.87H645c-.08,2.64-.19,5.86-.33,8.62l-.42,8.15H641l1.25-20.25h4.51l2.45,8.14c.67,2.37,1.25,4.77,1.73,7h.08c.5-2.19,1.14-4.69,1.86-7.06l2.59-8.11H660l1.08,20.25h-3.34Z"/><path class="cls-5" d="M666.56,196.55V188.1l-5.92-11.8h3.89l2.26,5.19c.64,1.51,1.11,2.65,1.61,4h.06c.47-1.29,1-2.55,1.64-4l2.25-5.19h3.87L670,188v8.54Z"/><path class="cls-5" d="M675.72,176.57a30.2,30.2,0,0,1,5.18-.42c2.7,0,4.54.48,5.79,1.62a5.3,5.3,0,0,1,1.61,4,5.37,5.37,0,0,1-3.39,5.08V187c1.33.54,2.14,1.95,2.61,3.91a44.2,44.2,0,0,0,1.48,5.65h-3.54a30.58,30.58,0,0,1-1.25-4.78c-.53-2.65-1.42-3.49-3.37-3.55h-1.72v8.33h-3.4Zm3.4,9h2c2.31,0,3.76-1.32,3.76-3.34,0-2.22-1.45-3.24-3.68-3.24a9.11,9.11,0,0,0-2.11.18Z"/><path class="cls-5" d="M693.06,179.39h-5.34V176.3h14.16v3.09h-5.4v17.16h-3.42Z"/><path class="cls-5" d="M701.86,176.3h3.42v17.15H713v3.1H701.86Z"/><path class="cls-5" d="M723.84,187.56h-7.07v5.95h7.91v3H713.35V176.3h10.91v3h-7.49v5.23h7.07Z"/><path class="cls-5" d="M730.51,176.57a26.53,26.53,0,0,1,5-.42c2.53,0,4.09.33,5.37,1.29a4.34,4.34,0,0,1,1.95,3.78,4.67,4.67,0,0,1-3.12,4.39v.06a5,5,0,0,1,3.79,5,5.43,5.43,0,0,1-1.81,4.17c-1.34,1.26-3.53,1.9-7,1.9a30.76,30.76,0,0,1-4.2-.27Zm3.39,8h1.76c2.36,0,3.7-1.2,3.7-2.92,0-1.89-1.34-2.76-3.51-2.76a8.74,8.74,0,0,0-2,.15Zm0,9.31a14.1,14.1,0,0,0,1.81.09c2.2,0,4.15-.9,4.15-3.39s-1.89-3.31-4.26-3.31h-1.7Z"/><path class="cls-5" d="M754.81,187.56h-7.07v5.95h7.9v3H744.31V176.3h10.92v3h-7.49v5.23h7.07Z"/><path class="cls-5" d="M760.18,190.81l-1.61,5.74H755l6-20.25h4.37l6.1,20.25h-3.68l-1.69-5.74Zm5.37-2.8-1.47-5c-.36-1.24-.67-2.62-1-3.79h-.06c-.27,1.17-.55,2.58-.89,3.79l-1.44,5Z"/><path class="cls-5" d="M784.76,196a11.14,11.14,0,0,1-4.85.9c-5.95,0-9.57-4-9.57-10.19,0-6.67,4.29-10.69,10-10.69a10.08,10.08,0,0,1,4.56.9l-.75,2.94a8.53,8.53,0,0,0-3.67-.78c-3.81,0-6.57,2.58-6.57,7.45,0,4.45,2.42,7.3,6.54,7.3a9,9,0,0,0,3.73-.75Z"/><path class="cls-5" d="M788.88,176.3v8.11h7.93V176.3h3.42v20.25h-3.42v-8.93h-7.93v8.93h-3.43V176.3Z"/><path class="cls-5" d="M601,200.69l-3.45,3.62,3.81,5.38H600L596.79,205l-1.45,1.45v3.2h-1.1v-9h1.1v4.6l4.3-4.6Z"/><path class="cls-5" d="M608,200.69v.89h-4.83v2.88h3.65v.9h-3.65v3.43h4.91v.9h-6v-9Z"/><path class="cls-5" d="M610.08,200.69v8.09h4.68v.91H609v-9Z"/><path class="cls-5" d="M616.7,200.69v8.09h4.68v.91h-5.8v-9Z"/><path class="cls-5" d="M628.15,200.69v.89h-4.84v2.88H627v.9h-3.66v3.43h4.92v.9h-6v-9Z"/><path class="cls-5" d="M629.1,200.69h3.18c2.16,0,3.24.78,3.24,2.35a2.12,2.12,0,0,1-.57,1.52,2.7,2.7,0,0,1-1.43.75l2.25,4.38h-1.23l-2.08-4.21h-2.27v4.21H629.1Zm1.09.85v3.11h1.94c1.5,0,2.25-.53,2.25-1.6a1.28,1.28,0,0,0-.57-1.17,3,3,0,0,0-1.6-.34Z"/><path class="cls-1" d="M646.66,200.74l-2.26,8.9h-1.12l-1.35-5.5q-.3-1.2-.6-2.7h-.14c-.15.86-.35,1.75-.59,2.68l-1.4,5.52h-1.12l-2.18-8.9h.89l1.25,5.43c.13.57.32,1.48.56,2.72h.15q.53-2.49.57-2.67l1.39-5.48h1.16l1.34,5.52c0,.09.22,1,.59,2.63h.13c0-.14.14-.62.3-1.42.09-.47.18-.87.27-1.22l1.31-5.51Z"/><path class="cls-1" d="M648.51,200.74v8.9h-.85v-8.9Z"/><path class="cls-1" d="M651.23,200.74v8.2H656v.7h-5.6v-8.9Z"/><path class="cls-1" d="M657.85,200.74v8.2h4.76v.7H657v-8.9Z"/><path class="cls-1" d="M664.48,200.74v8.9h-.84v-8.9Z"/><path class="cls-1" d="M669.61,200.74l3.09,8.9h-.9l-1-2.94h-3.53l-1,2.94h-.85l3.1-8.9Zm1,5.31-.77-2.32c-.28-.81-.53-1.6-.75-2.36H669c-.22.79-.46,1.58-.72,2.35l-.77,2.33Z"/><path class="cls-1" d="M682.52,200.74v8.9h-.8V201.4h-.14c-.13.4-.42,1.27-.89,2.59l-2.1,5.65h-1.09L675.44,204c-.3-.83-.6-1.69-.9-2.59h-.14v8.24h-.76v-8.9h1.42l2,5.58c.34.9.64,1.77.92,2.61h.13c.48-1.36.79-2.22.92-2.58l2.06-5.61Z"/><path class="cls-1" d="M689.93,202.64l-.84.25a2.11,2.11,0,0,0-2.15-1.63,2.26,2.26,0,0,0-1.56.49,1.4,1.4,0,0,0-.48,1.1,1.45,1.45,0,0,0,.52,1.21,4.22,4.22,0,0,0,1.53.59l.37.1a4.62,4.62,0,0,1,2.35,1.11,2.14,2.14,0,0,1,.47,1.47,2.18,2.18,0,0,1-.94,1.88,3.73,3.73,0,0,1-2.21.6,3.64,3.64,0,0,1-2.21-.64,3,3,0,0,1-1.1-1.56l.85-.3a2.3,2.3,0,0,0,2.44,1.83,2.56,2.56,0,0,0,1.81-.55,1.54,1.54,0,0,0,.48-1.19,1.48,1.48,0,0,0-.51-1.23,4.63,4.63,0,0,0-1.72-.69l-.32-.09a4.28,4.28,0,0,1-2.18-1,2.25,2.25,0,0,1,.34-3.15,3.25,3.25,0,0,1,2-.62A2.93,2.93,0,0,1,689.93,202.64Z"/><path class="cls-1" d="M692.27,208.39v1.25H691v-1.25Z"/><path class="cls-4" d="M550.15,146.24h1.28a1.09,1.09,0,0,1,1.24,1.1c0,.78-.52,1.16-1.3,1.16h-.92v1.9h-.3Zm.3,2h.92c.58,0,1-.2,1-.88s-.41-.82-1-.82h-.91Z"/><path class="cls-4" d="M556.41,148.35h-1.87v1.77h2.05l-.05.28h-2.3v-4.16h2.26v.28h-2v1.55h1.87Z"/><path class="cls-4" d="M561.3,148.29c0,1.2-.53,2.17-1.66,2.17s-1.63-.87-1.63-2.15.56-2.13,1.67-2.13S561.3,147,561.3,148.29Zm-3,0c0,1.07.42,1.89,1.33,1.89s1.33-.83,1.33-1.88-.43-1.83-1.32-1.83S558.33,147.29,558.33,148.29Z"/><path class="cls-4" d="M563,146.24h1.28a1.09,1.09,0,0,1,1.24,1.1c0,.78-.53,1.16-1.31,1.16h-.91v1.9H563Zm.3,2h.91c.58,0,1-.2,1-.88s-.4-.82-1-.82h-.91Z"/><path class="cls-4" d="M567.11,146.24h.3v3.88h2l-.06.28h-2.28Z"/><path class="cls-4" d="M573.05,148.35h-1.86v1.77h2l0,.28h-2.3v-4.16h2.26v.28h-2v1.55h1.86Z"/><path class="cls-4" d="M577.47,145.73V152h-.28v-6.25Z"/><path class="cls-4" d="M581.68,149.26a1,1,0,0,0,1,.91.83.83,0,0,0,.92-.85c0-.51-.2-.73-1-1s-1.12-.51-1.12-1.11a1,1,0,0,1,1.16-1,1.11,1.11,0,0,1,1.2,1.07h-.3a.84.84,0,0,0-.92-.79c-.54,0-.82.28-.82.72s.22.63.92.85c1,.32,1.2.69,1.2,1.25a1.13,1.13,0,0,1-1.26,1.16,1.21,1.21,0,0,1-1.32-1.19Z"/><path class="cls-4" d="M586.46,150.4v-1.68a.2.2,0,0,0,0-.1l-1.34-2.38h.34l1.2,2.13,1.19-2.13h.33l-1.37,2.41a.11.11,0,0,0,0,.08v1.67Z"/><path class="cls-4" d="M589.53,149.26a1,1,0,0,0,1,.91.84.84,0,0,0,.93-.85c0-.51-.21-.73-1-1s-1.12-.51-1.12-1.11a1,1,0,0,1,1.15-1,1.1,1.1,0,0,1,1.2,1.07h-.3a.83.83,0,0,0-.91-.79c-.55,0-.82.28-.82.72s.21.63.91.85c1,.32,1.21.69,1.21,1.25a1.14,1.14,0,0,1-1.26,1.16,1.21,1.21,0,0,1-1.33-1.19Z"/><path class="cls-4" d="M594.18,146.53h-1.25v-.29h2.8v.29h-1.25v3.87h-.3Z"/><path class="cls-4" d="M599.32,148.35h-1.87v1.77h2l0,.28h-2.3v-4.16h2.26v.28h-2v1.55h1.87Z"/><path class="cls-4" d="M604.38,148.49c0-.8,0-1.57,0-2h0c-.19.68-.95,2.7-1.41,3.9h-.31c-.35-1-1.13-3.14-1.34-3.9h0c0,.48,0,1.42,0,2.14v1.76h-.29v-4.16h.45c.51,1.4,1.17,3.25,1.33,3.79h0c.08-.31.85-2.39,1.38-3.79h.45v4.16h-.3Z"/><path class="cls-4" d="M606.59,149.26a1,1,0,0,0,1,.91.84.84,0,0,0,.93-.85c0-.51-.21-.73-1-1s-1.12-.51-1.12-1.11a1,1,0,0,1,1.16-1,1.11,1.11,0,0,1,1.2,1.07h-.31a.83.83,0,0,0-.91-.79c-.55,0-.82.28-.82.72s.21.63.91.85c1,.32,1.21.69,1.21,1.25a1.14,1.14,0,0,1-1.26,1.16,1.22,1.22,0,0,1-1.33-1.19Z"/><path class="cls-4" d="M613,145.73V152h-.28v-6.25Z"/><path class="cls-4" d="M618,146.53h-1.24v-.29h2.8v.29h-1.26v3.87H618Z"/><path class="cls-4" d="M623.82,148.29c0,1.2-.53,2.17-1.66,2.17s-1.63-.87-1.63-2.15.56-2.13,1.67-2.13S623.82,147,623.82,148.29Zm-3,0c0,1.07.42,1.89,1.33,1.89s1.33-.83,1.33-1.88-.43-1.83-1.32-1.83S620.85,147.29,620.85,148.29Z"/><path class="cls-4" d="M628.6,148.29c0,1.2-.53,2.17-1.66,2.17s-1.63-.87-1.63-2.15.56-2.13,1.67-2.13S628.6,147,628.6,148.29Zm-3,0c0,1.07.43,1.89,1.33,1.89s1.34-.83,1.34-1.88-.44-1.83-1.32-1.83S625.63,147.29,625.63,148.29Z"/><path class="cls-4" d="M630.32,146.24h.3v3.88h2l-.06.28h-2.28Z"/><path class="cls-4" d="M634.17,149.26a1,1,0,0,0,1,.91.83.83,0,0,0,.92-.85c0-.51-.2-.73-1-1s-1.12-.51-1.12-1.11a1,1,0,0,1,1.16-1,1.11,1.11,0,0,1,1.2,1.07h-.3a.84.84,0,0,0-.92-.79c-.54,0-.82.28-.82.72s.22.63.92.85c1,.32,1.2.69,1.2,1.25a1.13,1.13,0,0,1-1.26,1.16,1.21,1.21,0,0,1-1.32-1.19Z"/></svg>