<svg id="Layer_1" data-name="Layer 1" xmlns="http://www.w3.org/2000/svg" xmlns:xlink="http://www.w3.org/1999/xlink" viewBox="0 0 1007 249.77"><defs><style>.cls-1{font-size:81px;letter-spacing:0.02em;}.cls-1,.cls-14,.cls-17,.cls-18,.cls-25,.cls-26,.cls-34{fill:#b3b3b3;}.cls-1,.cls-14,.cls-18,.cls-20,.cls-26,.cls-28,.cls-31{font-family:MyriadPro-Semibold, Myriad Pro;font-weight:600;}.cls-2{letter-spacing:0.02em;}.cls-3{letter-spacing:-0.02em;}.cls-4,.cls-40{fill:none;}.cls-5{stroke:#000;}.cls-40,.cls-5{stroke-miterlimit:10;stroke-width:0.5px;}.cls-6{font-size:37px;letter-spacing:0.04em;}.cls-12,.cls-24,.cls-33,.cls-6,.cls-9{font-family:YuGothic-Medium, Yu Gothic;font-weight:500;}.cls-7{font-size:36px;font-family:MSReferenceSansSerif, MS Reference Sans Serif;letter-spacing:0em;}.cls-35,.cls-36,.cls-8{fill:red;}.cls-12,.cls-17,.cls-9{font-size:18.62px;}.cls-17,.cls-9{letter-spacing:0.08em;}.cls-10{letter-spacing:0.05em;}.cls-11{letter-spacing:0.08em;}.cls-12{letter-spacing:0.39em;}.cls-13{letter-spacing:0.37em;}.cls-14{font-size:42.81px;letter-spacing:0.02em;}.cls-15{letter-spacing:0.02em;}.cls-16{letter-spacing:-0.02em;}.cls-17{font-family:LucidaSans, Lucida Sans;}.cls-18,.cls-20,.cls-26,.cls-28,.cls-31{font-size:36.09px;}.cls-18{letter-spacing:-0.07em;}.cls-19{letter-spacing:-0.08em;}.cls-20{letter-spacing:-0.08em;}.cls-21{letter-spacing:-0.08em;}.cls-22{letter-spacing:-0.14em;}.cls-23{letter-spacing:-0.16em;}.cls-24,.cls-33{font-size:13.56px;}.cls-24{letter-spacing:-0.08em;}.cls-25,.cls-34{font-family:YuGothic-Regular, Yu Gothic;font-weight:400;}.cls-25{letter-spacing:-0.08em;}.cls-26{letter-spacing:-0.07em;}.cls-27{letter-spacing:-0.08em;}.cls-28,.cls-31,.cls-33{fill:#333;}.cls-28{letter-spacing:-0.08em;}.cls-29{letter-spacing:-0.09em;}.cls-30{letter-spacing:-0.08em;}.cls-31{letter-spacing:-0.08em;}.cls-32{letter-spacing:-0.1em;}.cls-33{letter-spacing:-0.08em;}.cls-34{letter-spacing:-0.08em;}.cls-35,.cls-36{font-size:8.46px;font-family:YuGothic-Light, Yu Gothic;font-weight:300;}.cls-36{letter-spacing:0em;}.cls-37{letter-spacing:-0.01em;}.cls-38{letter-spacing:-0.02em;}.cls-39{letter-spacing:-0.02em;}.cls-40{stroke:red;}</style><symbol id="brand-icon" data-name="brand-icon" viewBox="0 0 504 146.6"><text class="cls-1" transform="translate(0 89.49) scale(1.05 1.32)">EL<tspan class="cls-2" x="84.4" y="0">E</tspan><tspan x="128.14" y="0" xml:space="preserve">V  </tspan><tspan class="cls-3" x="214.48" y="0"> </tspan><tspan x="229.39" y="0">TE</tspan></text><polygon class="cls-4" points="213 22.61 189.5 38.55 189.5 49.48 236.5 49.48 236.5 38.55 213 22.61"/><polygon class="cls-4" points="236.5 31.3 236.5 11.48 189.5 11.48 189.5 31.3 213 15.36 236.5 31.3"/><polygon class="cls-5" points="236.5 38.55 236.5 31.3 213 15.36 189.5 31.3 189.5 38.55 213 22.61 236.5 38.55"/><polygon class="cls-4" points="213 71.61 189.5 87.56 189.5 98.48 236.5 98.48 236.5 87.56 213 71.61"/><polygon class="cls-4" points="236.5 80.3 236.5 60.48 189.5 60.48 189.5 80.3 213 64.36 236.5 80.3"/><polygon class="cls-5" points="236.5 87.56 236.5 80.3 213 64.36 189.5 80.3 189.5 87.56 213 71.61 236.5 87.56"/><polygon class="cls-4" points="213 47.61 189.5 63.55 189.5 74.48 236.5 74.48 236.5 63.55 213 47.61"/><polygon class="cls-4" points="236.5 56.3 236.5 36.48 189.5 36.48 189.5 56.3 213 40.36 236.5 56.3"/><polygon class="cls-5" points="236.5 63.55 236.5 56.3 213 40.36 189.5 56.3 189.5 63.55 213 47.61 236.5 63.55"/><text class="cls-6" transform="translate(58.17 135.62) scale(0.73 1)">C O A C H I N G</text></symbol></defs><text class="cls-7" transform="translate(392 144.82) scale(0.94 1.32)"><tspan xml:space="preserve">ELEV   TE</tspan></text><polygon class="cls-4" points="492.82 113.66 481.7 122.08 481.7 127.86 503.95 127.86 503.95 122.08 492.82 113.66"/><polygon class="cls-4" points="503.95 118.25 503.95 107.77 481.7 107.77 481.7 118.25 492.82 109.82 503.95 118.25"/><polygon class="cls-8" points="503.95 122.08 503.95 118.25 492.82 109.82 481.7 118.25 481.7 122.08 492.82 113.66 503.95 122.08"/><polygon class="cls-4" points="492.82 139.55 481.7 147.98 481.7 153.76 503.95 153.76 503.95 147.98 492.82 139.55"/><polygon class="cls-4" points="503.95 144.15 503.95 133.67 481.7 133.67 481.7 144.15 492.82 135.72 503.95 144.15"/><polygon class="cls-8" points="503.95 147.98 503.95 144.15 492.82 135.72 481.7 144.15 481.7 147.98 492.82 139.55 503.95 147.98"/><polygon class="cls-4" points="492.82 126.87 481.7 135.3 481.7 141.07 503.95 141.07 503.95 135.3 492.82 126.87"/><polygon class="cls-4" points="503.95 131.47 503.95 120.99 481.7 120.99 481.7 131.47 492.82 123.04 503.95 131.47"/><polygon class="cls-8" points="503.95 135.3 503.95 131.47 492.82 123.04 481.7 131.47 481.7 135.3 492.82 126.87 503.95 135.3"/><polygon points="880.38 122.08 880.38 118.25 869.25 109.82 858.13 118.25 858.13 122.08 869.25 113.66 880.38 122.08"/><polygon points="880.38 147.98 880.38 144.15 869.25 135.72 858.13 144.15 858.13 147.98 869.25 139.55 880.38 147.98"/><polygon points="880.38 135.3 880.38 131.47 869.25 123.04 858.13 131.47 858.13 135.3 869.25 126.87 880.38 135.3"/><polygon class="cls-8" points="691.8 121.2 691.8 117.37 680.68 108.94 669.56 117.37 669.56 121.2 680.68 112.77 691.8 121.2"/><polygon class="cls-8" points="691.8 147.1 691.8 143.27 680.68 134.84 669.56 143.27 669.56 147.1 680.68 138.67 691.8 147.1"/><polygon class="cls-8" points="691.8 134.41 691.8 130.58 680.68 122.15 669.56 130.58 669.56 134.41 680.68 125.98 691.8 134.41"/><text class="cls-9" transform="translate(431.12 170.25) scale(0.69 1)">COM<tspan class="cls-10" x="47.93" y="0">P</tspan><tspan class="cls-11" x="61.19" y="0">ANIES</tspan></text><text class="cls-12" transform="translate(795.19 168.53) scale(0.69 1)">C<tspan class="cls-13" x="19.93" y="0">OA</tspan><tspan x="59.5" y="0">CHING</tspan></text><text class="cls-14" transform="translate(579.86 146.85) scale(0.94 1.32)">EL<tspan class="cls-15" x="44.61" y="0">E</tspan><tspan x="67.73" y="0" xml:space="preserve">V  </tspan><tspan class="cls-16" x="113.37" y="0"> </tspan><tspan x="121.25" y="0">TE</tspan></text><text class="cls-14" transform="translate(768.43 147.85) scale(0.94 1.32)">EL<tspan class="cls-15" x="44.61" y="0">E</tspan><tspan x="67.73" y="0" xml:space="preserve">V  </tspan><tspan class="cls-16" x="113.37" y="0"> </tspan><tspan x="121.25" y="0">TE</tspan></text><text class="cls-17" transform="translate(588.1 168.46) scale(0.69 1)">LEVERAGE SERVICES</text><use width="504" height="146.6" transform="translate(0 0) scale(0.92 1.02)" xlink:href="#brand-icon"/><text class="cls-18" transform="translate(471 230.4) scale(1.16 1.32)">k<tspan class="cls-19" x="15.77" y="0">w </tspan></text><text class="cls-20" transform="translate(522.55 230.4) scale(0.81 0.92)">INN<tspan class="cls-21" x="49.66" y="0">O</tspan><tspan class="cls-22" x="72.07" y="0">V</tspan><tspan class="cls-23" x="88.89" y="0">A</tspan><tspan x="106.03" y="0">TE</tspan></text><text class="cls-24" transform="translate(473.51 245.23) scale(1.04 1)">KELLER<tspan class="cls-25" x="44.89" y="0">WILLIAMS.</tspan></text><text class="cls-26" transform="translate(654 230.4) scale(1.23 1.32)">k<tspan class="cls-27" x="15.77" y="0">w </tspan></text><text class="cls-28" transform="translate(708.86 230.4) scale(0.86 0.92)">M<tspan class="cls-29" x="26.96" y="0">Y</tspan><tspan class="cls-30" x="44.35" y="0">R</tspan><tspan x="62.18" y="0">TLE</tspan></text><text class="cls-31" transform="translate(802.78 230.4) scale(1.23 1.32)"> </text><text class="cls-28" transform="translate(808.43 230.4) scale(0.86 0.92)">BE<tspan class="cls-32" x="33.6" y="0">A</tspan><tspan x="52.91" y="0">CH</tspan></text><text class="cls-33" transform="translate(656.67 245.23) scale(1.06 1)">KELLER<tspan class="cls-34" x="44.89" y="0">WILLIAMS.</tspan></text><text class="cls-35" transform="translate(607.89 179.22) scale(0.85 0.7)">PEOPLE</text><text class="cls-36" transform="translate(634.49 179.22) scale(1.22 1)"><tspan xml:space="preserve">   </tspan></text><text class="cls-35" transform="translate(643.3 179.22) scale(0.85 0.7)"><tspan class="cls-37">SYS</tspan><tspan x="14.99" y="0">TEMS</tspan></text><text class="cls-35" transform="translate(675.3 179.22) scale(1.22 1)"><tspan xml:space="preserve">   </tspan></text><text class="cls-35" transform="translate(684.11 179.22) scale(0.85 0.7)"><tspan class="cls-38">T</tspan><tspan x="4.89" y="0">OO</tspan><tspan class="cls-39" x="16.72" y="0">L</tspan><tspan x="21.31" y="0">S</tspan></text><line class="cls-40" x1="680.5" y1="179.77" x2="680.5" y2="173.77"/><line class="cls-40" x1="639.5" y1="179.77" x2="639.5" y2="173.77"/></svg>